<?xml version="1.0" encoding="utf-8"?>
<!-- Generator: Adobe Illustrator 19.1.0, SVG Export Plug-In . SVG Version: 6.00 Build 0)  -->
<!DOCTYPE svg PUBLIC "-//W3C//DTD SVG 1.1//EN" "http://www.w3.org/Graphics/SVG/1.1/DTD/svg11.dtd">
<svg version="1.1" xmlns="http://www.w3.org/2000/svg" xmlns:xlink="http://www.w3.org/1999/xlink" x="0px" y="0px"
	 viewBox="0 0 1280 438" enable-background="new 0 0 1280 438" xml:space="preserve">
<g id="Layer_1" display="none">
	
		<linearGradient id="SVGID_1_" gradientUnits="userSpaceOnUse" x1="-14.2166" y1="86.3121" x2="1265.7834" y2="86.3121" gradientTransform="matrix(1.2155 -0.1194 0.107 1.09 -85.3869 78.2616)">
		<stop  offset="0" style="stop-color:#55FFE0"/>
		<stop  offset="1" style="stop-color:#002CAA"/>
	</linearGradient>
	<polygon display="inline" fill="url(#SVGID_1_)" points="1488.6,287.5 -67.3,440.2 -119.6,-92.2 1436.3,-244.9 	"/>
	<g display="inline">
		<g>
			<g>
				<g>
					<g>
						<path fill="#202020" d="M1497.4-240.9c0.8-0.6,0.2-1.7-2.1-1.3l-1.5,2.2L1497.4-240.9z"/>
						<path fill="#202020" d="M1481-243.2c-2.7,1.2-5.8,3.2-3.8,4.9c2.6-2.2,3.3-1.4,6.1-4c2.4-0.5,4.2,0.3,3.9,1
							c0.8-0.6,3.7,0.1,4.9-1.3c-3.2-1.3-7.2-1-11.1,0.7C1480.1-242.2,1480.9-242.8,1481-243.2z"/>
						<path fill="#202020" d="M1248.5-224.9l1.5,0.1C1249.6-224.9,1249-224.9,1248.5-224.9z"/>
						<path fill="#202020" d="M1104.4-212.7c1.1-0.1,1.5-0.4,1.6-0.6C1105-213.1,1104.2-212.9,1104.4-212.7z"/>
						<path fill="#202020" d="M1079.7-212.6c0.5,0,1,0,1.5,0C1080.6-212.8,1080-212.8,1079.7-212.6z"/>
						<path fill="#202020" d="M1248.5-224.9l-3.9-0.3C1244.4-224.5,1246.6-224.8,1248.5-224.9z"/>
						<path fill="#202020" d="M1449.5-235.4c0.8-0.2,1.4-0.4,2-0.7c-0.7,0.1-1.3,0.3-1.9,0.4
							C1449.5-235.6,1449.5-235.5,1449.5-235.4z"/>
						<path fill="#202020" d="M1311.8-232.3l1.2-0.1c0.3-0.3,0.6-0.6,0.9-0.9L1311.8-232.3z"/>
						<path fill="#202020" d="M1360.4-237.1c-1.1,0-1.3,1.8-1.7,2.5c0.6-0.8,1.3-1.2,2.3-1.4C1361-236.3,1360.8-236.7,1360.4-237.1z
							"/>
						<path fill="#202020" d="M1437.9-241.3l1.3-0.4C1438.9-241.5,1438.3-241.4,1437.9-241.3z"/>
						<path fill="#202020" d="M1276.9-229.5c-0.1-0.2-0.3-0.5-0.5-0.6C1276.4-229.8,1276.6-229.7,1276.9-229.5z"/>
						<path fill="#202020" d="M-83.8-91.2c0-0.1,0-0.2,0-0.3C-84.1-91.3-84.2-91.2-83.8-91.2z"/>
						<path fill="#202020" d="M-141-94.4l0.8-0.2c0.1-0.3,0.1-0.7,0.1-1L-141-94.4z"/>
						<path fill="#202020" d="M1034.5-210.7c0.1,0,0.1,0,0.2,0C1035.9-211,1035.2-210.9,1034.5-210.7z"/>
						<path fill="#202020" d="M621.8-171.4c4.8,1.1-7.4,2.6-0.2,3.7C620.8-168.3,627.7-170.9,621.8-171.4z"/>
						<path fill="#202020" d="M1448.2-235.5c-0.7,0.1-1.3,0.2-2,0.2C1447.1-235.3,1447.7-235.4,1448.2-235.5z"/>
						<path fill="#202020" d="M621.5-167.7C621.5-167.7,621.5-167.7,621.5-167.7l0.7,0.1C622-167.6,621.8-167.7,621.5-167.7z"/>
						<path fill="#202020" d="M931-200.1c0.2,0.3,0.7,0.5,1.1,0.6C932-199.6,931.8-199.8,931-200.1z"/>
						<path fill="#202020" d="M1008.4-204.8l-1.9-0.1C1007.2-204.8,1007.8-204.8,1008.4-204.8z"/>
						<path fill="#202020" d="M891.1-194c-1.1,0-1.4-0.2-2.8,0.1c0.1,0.1,0.3,0.1,0.5,0.2C889.2-194,889.9-194.2,891.1-194z"/>
						<path fill="#202020" d="M849.4-190.2c0.2,0.1,0.5,0.2,0.8,0.3c0.4-0.1,0.9-0.1,1.3-0.2L849.4-190.2z"/>
						<path fill="#202020" d="M42.9-103.7c-1-0.4-1.6-0.9-2.1-1.3C41.6-103.9,35.5-102.9,42.9-103.7z"/>
						<path fill="#202020" d="M1449.3-236.3c-0.2,0.4-0.5,0.7-1.2,0.8c0.5-0.1,0.9-0.1,1.4-0.2
							C1449.7-236,1449.7-236.2,1449.3-236.3z"/>
						<path fill="#202020" d="M890.6-180.5l-6.7,0.4C885.9-180.1,888.3-180.2,890.6-180.5z"/>
						<path fill="#202020" d="M342.1-131.6l-1.5,0.3C341.2-131.2,341.8-131.3,342.1-131.6z"/>
						<path fill="#202020" d="M864.4-178c-1.2-0.5-2.5-0.7-3.8-0.8c-0.3,0.2-0.6,0.3-0.7,0.5L864.4-178z"/>
						<path fill="#202020" d="M40.8-105.1C40.8-105.1,40.8-105.1,40.8-105.1C40.8-105.1,40.8-105.1,40.8-105.1z"/>
						<path fill="#202020" d="M-2.5-97c6.3-0.5,2.8-2.5,4-3.9c7.5-1.3,3.6,1.3,6.3,2.2c4.7-1,8.1-3.4,11.6-3.6
							c0.3,0.3,1,0.4,0.2,0.9c4.8-2.2,14.8-1.4,20.4-4.2c0.4,0.2,0.7,0.3,0.8,0.5c-1-1-1.3-2.2-1.2-3c2.8-0.3,5.1-1.9,6.3-0.5
							c-1.7,0.1-1.8,0.7-2.6,1.2l2.9-0.9c2.9,1.8-4,1.1-3.8,2.6c5.7-1.2,12.3-3.6,16.8-3.4c1.1,2-10.3,1.6-4.2,2.9l-6.9-0.2
							c5.5,2.8-4.2,0.2,0.9,3.2c9.1-0.2,10-2,19.1-2.2c1.9-1.3-0.8-1.6,1.1-3c12.6-3.2,10.5,4.2,19.7,0.6c2.3-1.6,3-4.3,9.8-3.5
							l-2.1,2.5c8.8-0.6,4.7-3.8,14-3.1c-1.5,1.1-6.8,1.4-5.5,1.6c6.1,1.3,4.1-1.7,8.6-2.1l1.1,2c9.3-1.2,19.4-3.6,29.7-4.9
							c-0.5,0.7-2.2,1.5,0.2,1.9c12.9-2.2,27.8-2.3,40.4-2.2l4.6-2.2c1.1-0.1,2.1,0.6,1,1.1c4.9,0.2,0.1-1.1,2.4-2.1
							c2.8-0.4,3.8,0.7,2.1,1.4c8.5-2.3,24.3-5.5,33.5-4.4l-1.7,0.7c7.1,0.1,7.6-4.4,14.4-3.3l-1.2,0.4c15.4-0.6,32.2-3.8,44.2-2.2
							c2-2.8,15.3-0.3,16-3.9c8.9,1,6.5,1.8,18.9,1.9c3.3-0.1,4.7-2.7,8.8-3.4l0.3,1.9l5.4-2.5l3.2,2l3.8-0.8
							c-1.5,0-3.3-0.5-3.1-1.1c5.9-1.4,14.7,0,14.9,0.9l14-2.9c-0.2,0.8-2.6,1.3-4.4,1.9c7.4-2.6,1.6,1.8,8.3-0.5
							c-1-0.3,0.4-1.2,0.5-1.5c3.5,0.8,11.4,0.1,17.2-0.9l-1,1.4c10.5-0.6,22-2.7,33.8-3.7c-4.3-0.2-3.5-2.5-0.1-3.1l1.6,1.8
							c2.1-1.4-3.7-0.4,0.8-2.3c4.4-0.2,3.2,2,0.7,2.8l5.3-1.2c0.4,0.6-0.9,1-1.1,1.8c2.1-1.4,9.4,1.1,12.4-1.3l0.4,0.6
							c11.8-1.1,17-2.2,26.6-3.2c0-1.7,3.8-1.7,6.5-3.3c7.1-0.1,15,0.5,23.5-0.4c5.9-1.4,1.6-1.6,4.2-2.9c0.6,1.5,9,0.6,4.7,2.1
							c10.2-1.2,13-1.5,25.7-3.9c-1.5-0.5-3.1-0.6-2.3-1.2c2.3-0.5,5.4,0.2,5.1,0.9l-0.6,0.2c14.2-3.7,33.8,1.4,45-2.8l-0.6,0.2
							l11.8-2.8c5.5-0.2-3.2,1.5,1,2c12.6-3.8,20.4-1.5,30.8-4.2c8.6,3.8,29.1-3,40.4-1.1l-0.7-1c2.8-1.3,3.5,0.3,5.7,0.3
							c-0.4-0.8-3.2-0.7-1.5-1.4c24.1-3.5,50.2-3,75.1-4.4c9.1-0.5,4.6-6,16.3-4.5l-3.1,2.3c18.1-4.1,37.5-3.4,55.3-7.1
							c-1,0.6-1,1.2-2.8,1.3c3.9,1.1,14-1.2,14-2.4c2.8-0.1,0.7,1,2.5,1.5c3.9,0.5,9.4-2.7,11.5-1.5c0.4,0.2-1,0.6-1.7,0.7
							c2.4-0.9,11.6-0.9,9-2.3c6.8,0.2,12.8-1.9,18.3-1.4c3.3-2.2,11.6-0.2,12.5-2.9c-0.2,2.8,12,1.1,16.2-0.6
							c-1.4,1,3.8,0.5,2.2,1.8c4.9-0.5,9.3-1.4,8.3-2.7c9.3,2.4,17.8-4.3,23.2-0.6c14.3-2.8,27.6-5,40.5-6.9
							c-0.2,2.8-14.3,1.6-13.5,4.4c12.2-2.3,19.1-5.3,31.4-5.7c3.2,0.1-1.7,1.3-2.7,1.9c12.2-2.3,23.8-1.9,34.7-4.4
							c0,0.3-1.2,0.6-2.3,1c2.2-0.3,5.1-0.1,4.7-1.3l-2.1,0.5c-3.6-1.5,8.2-4.5,8.5-5.5c-3.3,3.9,10.9-0.1,5.5,4.9
							c1.4-0.4,3.1-1.1,2.7-1.9c2.1,0,2.8,0.5,0.8,1.6c7.7-1.4,4.8-2.4,11.8-3.1c0,0.6-1.4,1-2,1.7c3.4-1.5,6.9-3,12.9-3
							c-0.3,0.4,0.4,0.8-1.4,1c10.2-1.1,17.1-4.7,28.3-4.6c-3.1,2.9,3.9,0.5,4.7,2.7l5.9-1.2l-2.5-0.9c5.3-0.4,9.8-2.5,14.3-2.2
							l-3.8,1.3l9.8-1.3l-5.7-0.3c5.2-1.7-0.8-2.8,6.2-2.8c-1.4,0.4,5.3-0.5,8.1,0.6c0,0,0,0,0,0c2.5-1,5.1-2,9.1-1.8
							c1.1,0.6-0.6,2.6,0.1,3c2.4-2.1,12.3-1.7,15.3-4c-1,0.6-1,1.8-0.6,2l2-1.7c2.5,0.3,2.9,0.5,2.6,1.4c7.4-0.4-2.6-2.6,6.2-2.2
							c-0.7,0.2-0.3,0.4-1.7,0.7c8.8-0.2,16.8-2.5,24.9-2.5c2.6,2.1-7,1.2-4.1,2.9c11.5-1.5,23.7-4.9,35-5.4l-2.1-0.1
							c1.3-3.3,8.5,0.8,14-1.2c-1.4,0.4-1.7,1.9-1.3,1.6c7.7-0.2,15.6-2.2,27.1-4.3l-1.4,1c4.6,0.3,11.9-0.7,16.9-0.7
							c1.4-1,4.2-1.1,2.4-2.1c15.5,3.3,28.5-5.2,42.2-2.5c-1.6,0.2-3.7,1.1-2.5,1l11.3-1.8c-1-1.3-1.6-0.7-4.1-1.6
							c1.4-1,4.5-1.9,7.3-2.2c-5,1.4,0.3,2.2,2.5,2.8c-0.4-0.4,0.3-0.9,0.1-1.4c6.2,1.9,0.7-2.9,9-2l-0.4,0.8c3-0.7,5.7-1.9,9-2
							c1.5,1.5-3.2,1.1-3.2,2.4c4.6-0.5,8.8-3.9,13.1-2.7c-1.9,0.6-4.7,0.9-6.6,1.5c4.7,1.5,5.2,0.9,8.6,0.9l-0.3,0l7.9,0.1l-2-0.3
							c5.4-4.7,11.6-1.8,19.1-5.3c-7.3,3.3-1.1,1.6-1.5,3.5c2,0.3,5.1,0.6,4.3,1.2c3.5-1.8,6.2,0.6,11.2-2c0.3,0.6,3.9-0.3,3.2,1.3
							c4.7-0.9-1.2-0.9-0.9-1.7c7.2-2.7,17.5,0.8,27.8-2.9c9-2,10.5-4.1,18.9-5.9c2.9,0.7-2.1,2.4-2.1,2.4c4.7,0.4,8.1,0,12.4-1.1
							c-0.8,0.6,0.1,0.9,1.5,1.5c3.5-0.5,2.1-2.4,6.8-1.9c-0.7,0.7-1.6,1.9-3.3,2.7c4.1-0.9,8-2.4,12.2-3.3c1.2,0.9-2.4,1.8-3.9,2.6
							c4.7-0.9,12.3-2.1,13.6-3.8l-3.1-0.3c1.7-0.2,1,1.3-0.2,1.7c-4,1.7-5.9,0-6.2-0.6l3-0.7c-3.4-3.2-12.1,1.7-18.2,2l2.3-2.7
							l-6.1,2.7c-1.4-0.5-2.4-1.9,0.5-2.5c-4.5-0.8-3.8,1.2-7.7,0.2c-0.4-0.2-0.3-0.3,0.1-0.5l-4.2,1.1c0.8-0.6-0.9-1.7,1.8-1.6
							c-7.8-0.7-12.2,3-15.2,1.4l0.6-0.2c-10.5,1.8-0.9,1.9-8.6,4.8l-5.8-4.1l-0.9,1.9c-1.1,0-3.3,0.1-2.9-0.7
							c-4,1.6,0.8,0.7-1.5,2.1c-5.4-1.2-14.5,2.1-15.9-0.7c-1.8,1.6,5.1,0.6-0.4,2.1c-1.9-3-6.5,1.1-11.4,0.1c1.3-1.8,6-1.3,1-2.3
							c-2.7,3-9.4,0.3-13.4,1.2c0,2.2-8.7,1.7-15.5,3.1c0.4-0.8-12.9,0-19.4-0.2l0.2-0.4c-1,2.3-7.6,2.5-12.3,3.4
							c0.1-1.3,0.9-1.9,3.4-2.8l-4.5,0.4c-1,0.8-2.4,1.3-5.2,1.8l1-1.8c-6,0.6-11.8,3.1-19.6,2.7c-0.3,1.6,6.5,3.7-1.5,5.5
							c-0.4-0.8-0.8-2.2,1.3-2.7c-0.7,0.2-2.4,0.9-3.8,0.7l3.1-1.7c-3.5-0.3-1.7,1.3-4.5,1.5c-0.1-1.2-2.1-0.7-1.8-1.6
							c0.7-0.2,2.5,0.3,3.5-0.3c-3.2,0.1-7-0.3-8.4-1.1c0.3,0.7,0.1,1.6-2.1,2c-6,0.6-2.2-1.2-5.7-1.5c-1.4,1-5.2,0.5-5.2,2.2
							c-1.7,0.2-2.1-0.6-2.9-1.1c-3,1.1-14.4,1.6-10.7,3.1l0.8,0.1c-0.1,0.1-0.3,0.1-0.5,0.1c0,0,0,0,0,0l0,0
							c-9.9,2.7-21.1,0.9-31.1,2.6l0-0.6c-5.9,1.2-13.3,1.6-17.4,3.3c-1.8,0.2-4.3-0.7-3.6-1.5c-4.5,0.9-5,1.6-11.7,1.2
							c4.5-1.5-1.7-0.8,4.6-1.2c-6,0-7.4-0.8-13.7,1.4c2-1.7-4.7-1.5-7.4-0.8l4.3,0.7c-3.2,0.5-5.9,0.6-8.8,0.8l1.3-2.1
							c-12.4-1.3-21.6,6.2-31.2,2.9c-3.1,1.7,6.7,0.4,4,2.3c-5.6,0.2-11.7-2.1-13.5-1.9c-7.8-0.4-6.9,3.6-15,3.6
							c1.1,0.6,2.2,2.4-3.7,3.7c-5.6,0.3-7.2-2.4-3.7-3.3c1.3-0.2,2,0,2,0.2c1.8-0.4,4.1-1,1.8-1.5l-0.7,0.8
							c-2.8-0.5-10.5,0.3-8.8-1c-4.2,1.1-1.7,1.3,1.5,1.4c-7.3-0.4-11.2,1-18.7,1c1.2,0.3,2.4,1,1.2,1.1c-10.9,0.1-4.7,1.8-12,2.8
							c-4.3-0.7,1.3-2.7-6.1-1.1c-4.6-0.3-1.1-1.8,0.6-2.6c-6.6,2-12.7,0.3-16.6,0.4l3.5-0.9c-2.1,0.5-3.8,0.7-5.6,0.8l2.2,1.2
							c-2.1-0.1-3.9,0.1-3.9-0.5c-2.1,1.1,1.9,2.2-2.3,3.9c-2.8-0.5-8.4,1.6-9.5-0.3c8.8-0.2-1.1-1.8,6.2-2.8
							c-1.4,0.4-3.1,0.5-5.3,0.5c-0.3-0.2,0.3-0.4,0.8-0.6c-8.5-0.9-3.6,2.5-12.3,3.3c1-1.2-2.2-1.8-3.6-1.5
							c3.5-0.3,1.8,1.6-1.3,2.8c-5.6-0.3-6,1.2-8.9,1.3l3.4,0.1c-1,1.2-3.8,1.3-7.7,2c-0.4-0.8,3.5-0.9,2-1.1
							c-4.1,2.3-9.9-1.1-15.8,0.8c-2.8-0.5-0.5-2-2.9-2.3c-6.6,2-7.4-0.8-14.4,1c2.2,1.3,2.5,0.9-2.4,2.7l11.5-2.1l-7.3,2.8
							c3.5-0.3,7.3-1.6,9.4-1.5c-3.4,1.5-3.1,1.1-1.3,2.2c-5-1.7-9.4,2.1-15.1,1.2l-0.2-3.6c-8.5-0.8-14.6,3.2-25.6,3.3l3.5,0.3
							c-1.3,1.6-6.7,0.8-10.1,1.7c0.2-1.2-2-1.5-3.6-2.1c0.3,0.9-7.9,0.6-8.7,3.1l-5-1.1c-8.8,0.2-9.7,4.3-18.1,4.7
							c2.4-1.5-1.5-2,4.1-3.5c-2.8,0.2-5.4,0.3-5.3,1.1c-1.7-0.6-7.6,2.3-10.3,1.4c-1.1,0.6-1.4,1.9-4.6,2.1c-0.4-0.2,0-0.6,0-0.6
							c0,0.6-4.9,1.3-2,2.3c-9-2.9-24.1,2.5-32,0c-6.1,1-13.4,2-19,2.6c0.3-0.4,0-0.6,1-0.6c-7.8-0.4-4.4,3.9-13.2,3.4
							c-4.6-1.5,4.5-1.5,1.7-1.9c-1.6-3.8-10.5,1.5-16.6-0.2l1.4-0.4c-4.6-0.9-10.8,2.5-18.2,2.9c0,0,0.3-0.4,0-0.6
							c-4.8,2.5-14.3,4-21.3,5.2c2.1-1.7,3.1-1.1,1.6-2.5c-3.1,0.5,1.2,2.4-5.1,3.4c-2.1-0.7-6.8-1-7.5-2.6l5.9-0.6
							c-3.2-1.9-7.7,0.8-10.9,0.7l0.3-1c-9.1,1.1-9,3.5-18.8,4.3l1.1,0.6c-5.1,2.8-4.6-0.9-9.8,1.3l-1.8-2.2
							c-3.5,0.9-12.2,3.4-18.5,4.5c3.4-2.1,10.8-3.7,15.3-5.2c-3.5,0.3-11.9,1.3-13.6,2.6c1.4-0.4,3.1-1.1,4.5-0.9
							c-4.1,2.3-9.7,3.7-16.7,4.3c0.8-4.7-18.3,0.5-23.7-2.6c-12.2,2.8-24.6,1.5-39,3.1c5.4,3.1-4.2,0.5-3,4.1
							c-3.3,0.5-4.6,0.6-4.9,0.4l-10.4-1.3c-2.5-0.9,3.1-1.1,2.7-1.9c-7.4,0.4-3.2-1.3-8.2-1.8c1.1,1.2-2.4,2.1-6.6,2l6.1,1.2
							c-10.1,2.9-9.2-2.3-19.3,0.6l3.2-1.5c-5.2,1.2-19.6,1.8-24.5,5.2c-1-0.3-2.3-1.2,0-1.7c-12.7,0.7-27.9,5.8-38,4.8l0.9-1
							c-2.3,0.5-4,2.1-7,1.4c0.1-0.4,0.9-1-0.2-0.9c-1.2,0.4-6.1,2.2-9.3,1.9l2.6-1.3c-12.5,0-18.8,4.2-29.1,5.8
							c-0.2-2.7-10-2.6-14.9-2.6l0.1-0.4c-14.4,1-24.3,4.5-37.5,6.7c-8.5-2.1-28.2,1.4-41.6,1c2.1,0.3-0.1,2.1-2.5,2.6
							c-3.2-0.3-8.5,2.6-8.2,0.2l1.1-0.1c-2.6-2.2-8.9-0.9-14-0.6l-0.5,3.3c-13.5-3.4-34.2,4.9-41.7,1.4c-3.1,1.1-7,1.4-10.1,2.5
							l0-1.7c-8.8,0.4-13.2,0.6-24,2l2.1-1.4c-6.1,0.5-7.3,5.6-12.9,6.3l-1.9-2.4c-10.7,1-21.7-0.2-32,3.1c0.1-0.4,0.4-1.2,2.1-1.4
							c-5,0.4-19.6,0.1-17.4,3.4c-0.3-2.3-11,0.8-16.7,2.3l0.7-1.8c-4.7,2.6-4.8,3.2-11.5,4.4c-1.6-0.1-1.5-1.2,0.6-1
							c-5.4-0.4-4,2-10.6,1.7l2.3-1.3c-5.5,0.4-5,0.9-8,2.4c-3.4,1-10.5,0.5-11.5-0.9c-0.7,1-3.6,2.5-6.9,2.4
							c-0.5-0.5,0.7-1,1.2-1.2c-9.3-0.3-13.5,3.2-20,2.2c-0.2-0.5-0.6-0.8-1.2-0.9c7.3-0.6,13.2-1.1,12.7-0.9
							c-0.1-1.6-6.1-1.3-1.6-3.9c-4.6,1.6-12.5,4.9-18.4,4.7c-0.3-0.1-0.6-0.2-0.8-0.5l0.6-0.2c-1.3,0-2.5,0.2-3.6,0.6
							c-1.9-0.1-3.1-0.2-4.8,0c-0.8-1.2-6.8-0.1-9.8,0.1c0.4,1.7-3.5,1.8,0.3,2.8c-0.5-0.1,0.5-0.3,2.5-0.5c0.4-0.1,1-0.2,1.2-0.3
							c-0.1,0.1-0.1,0.1-0.2,0.2c1.9-0.2,4.5-0.5,7.3-0.8c-2.3,1.1-4.6,2-8,1.4c-1.4,1.2-3,2.5-3.9,3.1c-4.3-2-12.2-2.6-13.4-3.9
							c-8.9,1.8-21.2,2.6-26.5,6.3c-2.5,0.6-3-0.6-4-1.1c1.4-0.5,3.2-0.6,4-1.1c-5,1.3-15.1,1.7-16.2,4.1c-6.5-0.4,3.4-2.4-5.4-1.2
							l1.1-0.8c-17.8-2-27.8,8.3-47.6,5.5c1.4,0.2,2,0.2,2.4,0.6c-22.2,0-45.3,6.1-67.3,4.9c-6.2-0.1-6.8,1.4-10.5,2.8l-1.5-1.7
							l-6.3,2.7c-9,2.4-16.3-3-27.6,1l1.6,1.1c-4.2,0.2-13.1,1.9-12.6,0.5c-0.4,0.3-1.2,1.4-2.9,0.9l-0.2-0.9l-10.1,2.6
							c-8,0,0.9-3.9-10.7-3c-4.3,0.8-12,3.9-10.3,4.4c1.7-0.1,4.5,0.2,4.7,1.1l-3.9,0.9c-0.5,2.9-3.2,6,6.6,7.1l6.6-2.3l2.3,1.2
							l-5.7,0.6c3.3,1,5.3-0.3,7.5-1.3c0.6,0.7,1.6,1.1,3,1.2l6.4-3.3c0.9,1-2.8,2.5,1.7,2.7c3-1.5-3.2-2.2,1.9-3.5
							c3.3,1,2.5,2.1,6.2,0.7c0.6,0.7-0.2,1.2-1.6,1.7c3.3-1.2,8.9-1.2,10.5-2.8c3.5,1.3,11.3-1.5,11.2,1.2c1-0.7,5.7-2.6,8.8-3
							c-5.3,3.7,11.6-0.9,10.4,2.7c3.9-3.2,15-2.7,22.2-4.9c-0.4,0.3-1.2,0.8-1.8,0.7c4.2-0.1,5.5,0.6,8.2,0.9
							c0.3-2.4,6.7-3.6,10.1-5.3c5.3,1.8-2.8,3.1-1,5.1c-0.4-1.9,8.7-2.7,6.8-4.2c4,1.1,3.4,0.4,5.6,2.2c0.4-3,3.6-0.8,6.7-3
							c5.8,0.9,1.7,2.6,7.8,1.2C2.9-98.6-2.5-97-2.5-97z M144.6-115.8C144.6-115.7,144.6-115.7,144.6-115.8c-1.3,0.2-2.3,0.3-3,0.4
							C142.2-115.4,143-115.5,144.6-115.8z M156.9-116.9c-1.5,0.1-3.4,0.2-5.4,0.4c-0.5-0.5-0.1-1.2,1.2-1.3
							C152.1-117.3,155.1-117.2,156.9-116.9z M129.6-126.3c1.9-0.4,2.6-0.1,2.9,0.2c-0.9,0.1-2,0.3-3.4,0.5
							c-0.1,0.1-0.2,0.2-0.2,0.2C129.1-125.7,129.3-126,129.6-126.3z"/>
						<path fill="#202020" d="M126.3-123.7c-0.3,0.1-0.4,0.1-0.8,0.2c0.4,0.1,0.8,0.2,1.2,0.3c0.2-0.2,0.4-0.4,0.6-0.6
							C127-123.8,126.6-123.8,126.3-123.7z"/>
						<path fill="#202020" d="M1250.3-224.8l-0.3,0c0.2,0,0.4,0.1,0.6,0.2C1250.4-224.6,1250.4-224.7,1250.3-224.8z"/>
						<polygon fill="#202020" points="328.4,-129.4 328.4,-129.9 327.3,-129.4 						"/>
						<path fill="#202020" d="M1319.1-225.2c0.1,0.1,0.4,0.3,0.9,0.4C1319.9-225,1319.5-225.1,1319.1-225.2z"/>
						<path fill="#202020" d="M1348.6-227.6l4.2,0.2C1351-227.5,1349.6-227.6,1348.6-227.6z"/>
						<path fill="#202020" d="M1371.3-228.8c0.3-0.3,0.3-0.6,0.4-0.8c0,0,0,0,0,0L1371.3-228.8z"/>
						<path fill="#202020" d="M1011-193.6c-0.3,0-0.6,0.1-0.9,0.2C1008.1-192.9,1009.5-193.2,1011-193.6z"/>
						<path fill="#202020" d="M1117.9-207.4c-1.1,0.4-2.2,0.8-3.4,1.1C1116.5-206.4,1118-206.5,1117.9-207.4z"/>
						<path fill="#202020" d="M891.4-180.5C891.4-180.5,891.4-180.5,891.4-180.5c-0.2,0-0.5,0-0.7,0L891.4-180.5z"/>
						<path fill="#202020" d="M1109.6-205.9c1.9,0.2,3.5-0.1,5-0.4C1113-206.3,1111.1-206.3,1109.6-205.9z"/>
						<path fill="#202020" d="M1469.7-237.1l1.1,0c0-0.1,0-0.2,0.1-0.3L1469.7-237.1z"/>
						<path fill="#202020" d="M1470.9-237.4l1.2-0.3C1471.5-237.7,1471-237.6,1470.9-237.4z"/>
						<path fill="#202020" d="M1474.6-238.4l-2.5,0.7C1473-237.8,1474.1-237.8,1474.6-238.4z"/>
						<path fill="#202020" d="M1439.6-235.1l-0.3,0.6C1439.5-234.6,1439.6-234.8,1439.6-235.1z"/>
						<path fill="#202020" d="M1430.5-234.1c2.2-0.1,5.6,0.8,8.6,0.1l0.2-0.5C1438-233.4,1432.5-235.3,1430.5-234.1z"/>
						<path fill="#202020" d="M1391.7-238.2l7.7-0.2c-1.4-0.5-3.2-1.3,0.2-1.7C1389.8-241.2,1401.8-238.8,1391.7-238.2z"/>
						<path fill="#202020" d="M1367.9-237c4.1-0.7-0.1-0.9,0-1.3C1365.4-237.5,1364.8-237.2,1367.9-237z"/>
						<path fill="#202020" d="M1196.6-221.2l0.3-1.6C1193.8-222.2,1196.9-222.2,1196.6-221.2z"/>
						<polygon fill="#202020" points="1164.6,-210.2 1167.8,-209.5 1169.1,-211.1 						"/>
						<polygon fill="#202020" points="1144.3,-219.4 1145.7,-219.7 1140.4,-218.7 						"/>
						<path fill="#202020" d="M856.7-192.3l1.1,1.8C859.9-191.1,860.2-193.2,856.7-192.3z"/>
						<path fill="#202020" d="M732.7-179c-1.4-0.8-5-1.1-7.1,0C728.4-179.1,731.3-178.6,732.7-179z"/>
						<polygon fill="#202020" points="359.9,-147.7 362.4,-148.6 357.7,-147.6 						"/>
					</g>
				</g>
			</g>
		</g>
	</g>
	<g display="inline">
		<g>
			<g>
				<g>
					<path fill="#202020" d="M1570,278.4c0.9-0.1,0.4-0.2-2,0.1l-1.7,0.4L1570,278.4z"/>
					<path fill="#202020" d="M1554,279.6c-2.8,0.4-6,1.1-4.1,1.2c2.7-0.7,3.4-0.6,6.4-1.3c2.4-0.3,4.2-0.3,3.8-0.2
						c0.8-0.2,3.7-0.4,5-0.6c-3.1,0.1-7,0.5-11.1,1.1C1553,279.9,1553.8,279.7,1554,279.6z"/>
					<path fill="#202020" d="M1321.5,300.3l1.5,0C1322.6,300.3,1322.1,300.3,1321.5,300.3z"/>
					<path fill="#202020" d="M1177.4,313c1.1-0.2,1.5-0.4,1.6-0.6C1178,312.6,1177.2,312.8,1177.4,313z"/>
					<path fill="#202020" d="M1152.6,313.1c0.5,0,1,0,1.5,0C1153.5,313,1152.9,312.9,1152.6,313.1z"/>
					<path fill="#202020" d="M1321.5,300.3l-3.9-0.1C1317.4,300.7,1319.6,300.4,1321.5,300.3z"/>
					<path fill="#202020" d="M1522.1,284.2c0.8-0.1,1.5-0.3,2.1-0.4c-0.7,0.1-1.3,0.2-2,0.3C1522.2,284.1,1522.2,284.2,1522.1,284.2
						z"/>
					<path fill="#202020" d="M1384.9,293.3l1.2-0.1c0.3-0.2,0.6-0.4,0.9-0.6L1384.9,293.3z"/>
					<path fill="#202020" d="M1433.6,288.9c-1.1,0.1-1.4,1-1.8,1.5c0.6-0.4,1.4-0.7,2.3-0.9C1434.2,289.3,1434,289.1,1433.6,288.9z"
						/>
					<path fill="#202020" d="M1511,283.3l1.4-0.2C1512,283.1,1511.4,283.2,1511,283.3z"/>
					<path fill="#202020" d="M1350,296.2c-0.1-0.2-0.3-0.3-0.5-0.4C1349.5,295.9,1349.7,296.1,1350,296.2z"/>
					<path fill="#202020" d="M-11.4,435.7C-11.4,435.7-11.5,435.7-11.4,435.7C-11.7,435.7-11.8,435.7-11.4,435.7z"/>
					<path fill="#202020" d="M-68,440l0.8-0.1c0.1,0,0.2-0.1,0.2-0.1L-68,440z"/>
					<path fill="#202020" d="M1107.4,315.1c0.1,0,0.1,0,0.2,0C1108.8,314.8,1108.1,314.9,1107.4,315.1z"/>
					<path fill="#202020" d="M694.9,359.1c4.8,0.7-7.5,2.3-0.3,2.8C693.9,361.5,700.8,359.3,694.9,359.1z"/>
					<path fill="#202020" d="M1520.9,284.3c-0.7,0.1-1.3,0.2-2,0.2C1519.8,284.4,1520.4,284.4,1520.9,284.3z"/>
					<path fill="#202020" d="M694.6,362L694.6,362l0.7,0.1C695,362,694.8,362,694.6,362z"/>
					<path fill="#202020" d="M1003.9,326.5c0.2,0.3,0.7,0.5,1.1,0.7C1005,327,1004.7,326.8,1003.9,326.5z"/>
					<path fill="#202020" d="M1081.3,321.2l-1.9,0C1080.2,321.3,1080.8,321.3,1081.3,321.2z"/>
					<path fill="#202020" d="M964.1,333c-1.1,0-1.4-0.2-2.8,0.2c0.1,0.1,0.3,0.1,0.5,0.2C962.2,333.1,962.9,332.9,964.1,333z"/>
					<path fill="#202020" d="M922.4,337.4c0.2,0.1,0.5,0.2,0.8,0.2c0.4-0.1,0.9-0.2,1.3-0.2L922.4,337.4z"/>
					<path fill="#202020" d="M115.4,424c-0.9-0.1-1.5-0.2-2-0.3C114.1,424,108,424.7,115.4,424z"/>
					<path fill="#202020" d="M1522.1,283.9c-0.2,0.1-0.6,0.3-1.2,0.4c0.5-0.1,0.9-0.1,1.4-0.2C1522.4,284,1522.4,284,1522.1,283.9z"
						/>
					<path fill="#202020" d="M963.7,346.5l-6.7,0.4C958.9,346.9,961.3,346.8,963.7,346.5z"/>
					<path fill="#202020" d="M414.9,396.2l-1.5,0.3C414,396.4,414.5,396.3,414.9,396.2z"/>
					<path fill="#202020" d="M937.4,348.9c-1.2-0.5-2.5-0.7-3.8-0.8c-0.3,0.2-0.6,0.3-0.7,0.5L937.4,348.9z"/>
					<path fill="#202020" d="M113.4,423.7C113.5,423.7,113.5,423.7,113.4,423.7C113.5,423.7,113.5,423.7,113.4,423.7z"/>
					<path fill="#202020" d="M69.9,428.8c6.3-0.6,2.9-0.8,4.2-1.3c7.5-0.9,3.5,0.1,6.1,0.2c4.7-0.6,8.3-1.4,11.8-1.8
						c0.3,0.1,1,0,0.2,0.2c4.9-0.9,14.8-1.4,20.5-2.6c0.4,0,0.7,0.1,0.8,0.1c-1-0.2-1.1-0.5-1-0.8c2.8-0.3,5.2-0.9,6.3-0.6
						c-1.7,0.2-1.9,0.3-2.7,0.6l2.9-0.5c2.7,0.4-4,0.6-4,1.1c5.8-0.7,12.5-1.9,16.9-2.2c1,0.5-10.3,1.2-4.4,1.2l-6.9,0.4
						c5.3,0.5-4.2,0.3,0.7,0.9c9.1-0.6,10.1-1.2,19.1-1.9c2-0.5-0.7-0.5,1.3-1c12.7-1.9,10.2,0.8,19.6-1c2.4-0.7,3.2-1.7,10-1.8
						l-2.2,1c8.8-0.7,4.9-1.6,14.1-1.9c-1.6,0.5-6.8,0.9-5.5,0.9c6,0.1,4.2-0.9,8.7-1.3l1,0.7c9.3-1,19.5-2.5,29.8-3.6
						c-0.5,0.3-2.3,0.7,0.1,0.7c13-1.6,27.8-2.5,40.4-3.1l4.7-1.2c1.1-0.1,2.1,0.2,0.9,0.4c4.9-0.2,0.2-0.5,2.5-1
						c2.8-0.3,3.7,0.1,2,0.5c8.6-1.4,24.4-3.7,33.6-3.7l-1.7,0.4c7.1-0.3,7.8-2.4,14.5-2.3l-1.2,0.3c15.4-1.1,32.3-3.5,44.1-3.2
						c2.1-1.5,15.3-0.8,16.1-2.8c8.9,0.1,6.4,0.7,18.8,0.2c3.3-0.2,4.8-1.7,8.9-2.3l0.2,1l5.4-1.6l3.1,1l3.8-0.6
						c-1.5,0.1-3.3-0.2-3.1-0.5c5.9-1,14.6-0.6,14.8-0.1l14-2.2c-0.3,0.5-2.6,0.8-4.5,1.3c7.4-1.8,1.5,1,8.3-0.6
						c-1-0.2,0.4-0.7,0.6-0.9c3.5,0.3,11.4-0.4,17.1-1.2l-1,0.9c10.5-0.8,22.1-2.4,33.8-3.5c-4.3,0-3.4-1.4,0-1.9l1.5,1.1
						c2.2-1-3.6-0.1,0.8-1.5c4.4-0.3,3.1,1.1,0.6,1.8l5.3-0.9c0.4,0.3-0.9,0.7-1.2,1.2c2.1-1,9.4,0.4,12.4-1.2l0.3,0.3
						c11.8-1.1,17.1-2,26.6-3c0.1-1.1,3.8-1.2,6.6-2.4c7.1-0.3,15-0.1,23.5-1c5.9-1.1,1.6-1.1,4.3-2.1c0.5,1,9,0.1,4.7,1.3
						c10.2-1.1,13-1.4,25.8-3.5c-1.4-0.3-3-0.4-2.3-0.8c2.3-0.4,5.4-0.1,5.1,0.5l-0.6,0.2c7.1-1.5,15.6-1.5,23.6-1.5
						c8,0,15.7-0.1,21.4-1.8l-0.6,0.2l11.8-2.4c5.5-0.3-3.2,1.2,0.9,1.5c12.7-3.1,20.4-1.6,30.8-3.9c8.6,2.7,29.1-3,40.4-1.8
						l-0.7-0.8c2.8-1.1,3.5,0.2,5.6,0.2c-0.4-0.6-3.2-0.5-1.4-1.1c24.2-3.3,50.2-3.5,75.2-4.9c9.1-0.6,4.7-5.2,16.4-4.1l-3.1,2
						c18.2-3.8,37.6-3.3,55.3-6.8c-1,0.5-1,1.1-2.8,1.2c3.9,1,14-1.2,14-2.3c2.8-0.1,0.7,0.9,2.5,1.3c3.9,0.5,9.4-2.6,11.5-1.4
						c0.4,0.2-1,0.5-1.7,0.7c2.4-0.9,11.6-0.9,9-2.2c6.8,0.1,12.8-1.9,18.3-1.4c3.3-2.1,11.6-0.2,12.5-2.9c-0.2,2.7,12,1.1,16.2-0.6
						c-1.3,1,3.8,0.5,2.2,1.8c4.9-0.5,9.3-1.4,8.3-2.7c9.3,2.5,17.8-4.4,23.2-0.6c14.3-2.9,27.6-5.2,40.5-7.1
						c-0.2,2.9-14.3,1.7-13.5,4.6c12.2-2.3,19.1-5.5,31.4-6c3.2,0.1-1.7,1.4-2.7,2c12.2-2.4,23.8-2.1,34.7-4.7c0,0.3-1.2,0.7-2.3,1
						c2.2-0.3,5.1-0.1,4.7-1.4l-2.1,0.6c-3.6-1.5,8.2-4.8,8.5-5.8c-3.3,4,10.9-0.2,5.6,5.1c1.4-0.4,3.1-1.2,2.7-2
						c2.1,0,2.9,0.5,0.8,1.7c7.7-1.5,4.8-2.6,11.8-3.2c0,0.6-1.4,1-2,1.8c3.4-1.6,6.9-3.1,12.9-3.2c-0.3,0.4,0.4,0.8-1.4,1
						c10.2-1.2,17-4.9,28.3-4.9c-3,3,3.9,0.5,4.7,2.7l5.9-1.3l-2.5-0.8c5.3-0.5,9.7-2.6,14.3-2.3l-3.8,1.3l9.8-1.4l-5.7-0.3
						c5.2-1.7-0.8-2.7,6.2-2.8c-1.4,0.4,5.3-0.5,8.1,0.5c0,0,0,0,0,0c2.5-1,5.1-2,9.1-1.8c1.1,0.6-0.6,2.5,0.1,2.9
						c2.4-2.1,12.3-1.8,15.3-4c-1,0.6-1,1.7-0.6,1.9l2-1.7c2.5,0.2,2.9,0.4,2.6,1.3c7.3-0.5-2.6-2.4,6.2-2.2
						c-0.7,0.2-0.3,0.4-1.7,0.7c8.8-0.3,16.8-2.6,24.9-2.8c2.6,1.8-7,1-4.1,2.5c11.5-1.6,23.7-4.8,34.9-5.8h-2.1
						c1.3-2,8.5,0.7,14-1.2c-1.4,0.3-1.7,1.8-1.3,1.5c7.7-0.4,15.6-2.3,27.1-4.3l-1.4,0.8c4.6,0.1,11.9-0.9,16.8-1.1
						c1.4-0.8,4.2-1,2.4-1.7c7.7,1,14.8-0.3,21.7-1.5c6.9-1.3,13.6-2.5,20.4-1.9c-1.6,0.2-3.8,0.9-2.5,0.8l11.3-1.7
						c-1-0.8-1.5-0.4-4-0.9c1.4-0.7,4.6-1.4,7.4-1.7c-5.1,1.1,0.2,1.5,2.4,1.7c-0.4-0.2,0.3-0.6,0.1-0.9c6.1,1,0.8-1.9,9-1.7
						l-0.4,0.5c3-0.5,5.7-1.4,9-1.6c1.5,0.8-3.2,0.8-3.3,1.6c4.6-0.6,8.9-2.8,13.1-2.2c-1.9,0.5-4.7,0.8-6.7,1.2
						c4.6,0.7,5.1,0.3,8.5,0.1l-0.3,0l7.8-0.4l-2-0.1c2.8-1.5,5.7-1.9,8.9-2.2c3.2-0.3,6.6-0.6,10.4-1.7c-7.4,2.1-1.2,0.9-1.7,1.9
						c2,0.1,5,0,4.2,0.4c3.6-1.1,6.2-0.1,11.2-1.8c0.3,0.3,3.9-0.4,3.2,0.4c4.7-0.8-1.2-0.4-0.8-0.7c3.6-0.9,8-1.1,12.7-1.4
						c4.7-0.3,9.9-0.7,15.1-1.9c9.1-1.5,10.7-2.3,19.1-3.5c2.9,0-2.3,1-2.3,1c4.6-0.2,8.1-0.6,12.4-1.3c-0.9,0.2,0.1,0.3,1.4,0.3
						c3.5-0.4,2.3-0.9,6.9-1.1c-0.8,0.3-1.8,0.7-3.4,1c4.1-0.6,8.1-1.4,12.3-1.9c1.1,0.1-2.5,0.6-4,1c4.8-0.7,12.3-1.6,13.8-2.1
						l-3.1,0.2c1.7-0.2,0.9,0.2-0.4,0.4c-4.1,0.7-5.9,0.5-6.1,0.4l3-0.4c-1.6-0.2-4.6,0.1-8,0.6c-3.4,0.5-7.1,1.1-10.2,1.4l2.5-1
						l-6.2,1.2c-1.3-0.1-2.3-0.4,0.7-0.8c-4.4,0-3.8,0.7-7.6,0.6c-0.4,0-0.2-0.1,0.1-0.2l-4.2,0.6c0.8-0.3-0.8-0.5,1.9-0.6
						c-7.7,0.2-12.3,1.8-15.2,1.4l0.6-0.1c-10.6,1.3-1,0.8-8.8,2.4c0,0-1.4-0.3-2.8-0.7c-1.4-0.3-2.8-0.7-2.8-0.7l-1,0.9
						c-1.1,0.1-3.3,0.2-2.9-0.1c-4,0.9,0.7,0.3-1.6,1c-5.3-0.2-14.5,1.8-15.8,0.5c-1.8,0.9,5.1,0-0.5,1c-1.8-1.4-6.5,0.9-11.4,0.6
						c1.4-1,6-0.9,1.1-1.3c-2.8,1.7-9.4,0.5-13.5,1.2c-0.1,1.2-8.8,1.3-15.6,2.4c0.4-0.5-12.9,0.5-19.3,0.5l0.2-0.2
						c-1.1,1.5-7.7,1.9-12.4,2.6c0.1-0.9,0.9-1.3,3.5-1.9l-4.5,0.4c-1,0.6-2.4,0.9-5.3,1.4l1-1.2c-6,0.6-11.9,2.4-19.6,2.4
						c-0.3,1.2,6.4,2.5-1.6,4c-0.4-0.6-0.8-1.6,1.3-2c-0.7,0.1-2.4,0.7-3.9,0.6l3.1-1.3c-3.5-0.1-1.7,1-4.5,1.2
						c0-0.9-2.1-0.4-1.8-1.1c0.7-0.1,2.5,0.1,3.5-0.3c-3.2,0.1-7,0-8.3-0.6c0.3,0.5,0.1,1.2-2.2,1.5c-6,0.6-2.1-0.9-5.7-1
						c-1.4,0.8-5.3,0.4-5.2,1.8c-1.7,0.2-2.1-0.5-2.8-0.8c-3,0.9-14.4,1.5-10.8,2.7l0.8,0c-0.1,0-0.3,0.1-0.5,0.1c0,0,0,0,0,0l0,0
						c-10,2.4-21.1,1.2-31.1,2.7l0-0.5c-5.9,1.1-13.3,1.6-17.5,3.1c-1.8,0.2-4.3-0.5-3.6-1.2c-4.5,0.8-5,1.5-11.7,1.2
						c4.5-1.4-1.7-0.7,4.7-1.1c-6,0.1-7.4-0.6-13.7,1.4c2-1.6-4.7-1.3-7.4-0.6l4.3,0.6c-3.2,0.5-6,0.6-8.8,0.8l1.3-2
						c-12.4-1.2-21.6,5.9-31.2,2.9c-3.1,1.6,6.7,0.3,4,2.2c-5.6,0.3-11.7-1.9-13.5-1.8c-7.8-0.4-6.9,3.5-15,3.5
						c1.1,0.6,2.2,2.4-3.7,3.6c-5.6,0.3-7.2-2.3-3.7-3.2c1.3-0.2,2,0,2,0.2c1.8-0.4,4.1-1,1.8-1.5l-0.7,0.8c-2.9-0.5-10.6,0.3-8.9-1
						c-4.2,1.1-1.7,1.3,1.5,1.4c-7.3-0.4-11.2,1-18.7,1c1.2,0.3,2.4,1,1.2,1.1c-10.9,0.1-4.6,1.8-12,2.8c-4.3-0.7,1.2-2.8-6.1-1.1
						c-4.6-0.3-1.1-1.8,0.6-2.6c-6.6,2-12.7,0.3-16.6,0.4l3.5-0.9c-2.1,0.6-3.8,0.7-5.6,0.9l2.2,1.3c-2.1-0.1-3.9,0.1-3.9-0.5
						c-2.1,1.2,1.9,2.3-2.2,4c-2.9-0.5-8.4,1.6-9.5-0.2c8.8-0.2-1.2-1.9,6.2-2.9c-1.4,0.4-3.1,0.5-5.3,0.5c-0.3-0.2,0.3-0.4,0.8-0.6
						c-8.5-1-3.6,2.6-12.3,3.4c1-1.2-2.2-1.9-3.6-1.5c3.5-0.3,1.9,1.7-1.3,2.9c-5.6-0.3-6,1.2-8.9,1.4l3.4,0.1
						c-1,1.2-3.8,1.4-7.7,2.1c-0.4-0.8,3.5-0.9,2-1.2c-4.1,2.4-9.9-1.1-15.8,0.8c-2.9-0.5-0.5-2.1-3-2.3c-6.6,2.1-7.4-0.8-14.4,1.1
						c2.2,1.3,2.5,0.9-2.3,2.9l11.5-2.2l-7.2,2.9c3.5-0.3,7.3-1.7,9.4-1.6c-3.4,1.6-3.1,1.2-1.3,2.2c-5-1.8-9.4,2.3-15.1,1.3
						l-0.2-3.7c-8.5-0.8-14.6,3.4-25.5,3.6l3.5,0.3c-1.3,1.6-6.7,0.9-10.1,1.8c0.2-1.3-2-1.5-3.6-2.1c0.3,0.9-7.9,0.7-8.7,3.3
						l-5-1.1c-8.8,0.3-9.6,4.5-18.1,4.9c2.4-1.6-1.5-2,4-3.5c-2.8,0.3-5.3,0.3-5.3,1.2c-1.7-0.6-7.6,2.4-10.3,1.5
						c-1.1,0.6-1.4,1.9-4.6,2.1c-0.4-0.2,0-0.6,0-0.6c0,0.6-4.9,1.3-2,2.3c-9-2.8-24.1,2.7-32,0.4c-6.1,1-13.4,2.1-19,2.8
						c0.3-0.4,0-0.6,1-0.6c-7.8-0.2-4.4,3.7-13.2,3.4c-4.6-1.3,4.5-1.4,1.7-1.8c-1.6-3.5-10.5,1.6-16.6,0.1l1.4-0.4
						c-4.6-0.7-10.8,2.5-18.2,3c0,0,0.3-0.3,0-0.5c-4.8,2.3-14.3,3.8-21.3,5c2.1-1.6,3.1-1,1.7-2.3c-3.1,0.5,1.1,2.1-5.1,3.1
						c-2.1-0.5-6.7-0.7-7.5-2.1l5.9-0.7c-3.2-1.5-7.7,0.9-10.9,0.9l0.3-0.8c-9.1,1.2-9,3.2-18.8,4.1l1.1,0.5
						c-5.2,2.5-4.6-0.7-9.8,1.3l-1.8-1.8c-3.5,0.8-12.2,3.2-18.5,4.2c3.5-1.8,10.8-3.3,15.3-4.6c-3.5,0.3-11.9,1.4-13.6,2.5
						c1.4-0.3,3.1-1,4.6-0.8c-4.1,2-9.7,3.3-16.7,4c0.9-3.9-18.3,0.9-23.6-1.4c-12.2,2.6-24.6,1.9-38.9,3.7c5.4,2.2-4.2,0.5-3,3.3
						c-3.3,0.5-4.6,0.6-4.9,0.4l-10.3-0.6c-2.5-0.6,3.1-0.9,2.8-1.5c-7.4,0.5-3.2-0.9-8.1-1.1c1.1,0.9-2.4,1.7-6.6,1.7l6,0.7
						c-10.1,2.5-9.1-1.4-19.3,1.1l3.2-1.2c-5.3,1.1-19.6,2-24.6,4.7c-1-0.2-2.3-0.8,0-1.3c-12.7,1-28,5.2-38,4.9l0.9-0.7
						c-2.3,0.4-4,1.6-7,1.3c0.1-0.3,0.9-0.7-0.2-0.7c-1.2,0.3-6.2,1.8-9.3,1.7l2.6-1c-12.4,0.5-18.8,3.7-29.1,5.1
						c-0.2-1.8-9.9-1.4-14.8-1.1l0.1-0.3c-14.4,1.3-24.3,4-37.6,6c-8.5-1-28.1,2.2-41.5,2.6c2.1,0.1-0.2,1.3-2.6,1.7
						c-3.2,0-8.5,2-8.2,0.5l1.1-0.1c-2.5-1.2-8.9-0.1-13.9,0.4l-0.6,1.9c-6.7-0.7-15.2,0.5-23.1,1.6c-7.8,1.1-14.9,2.1-18.6,1.4
						c-3.1,0.8-7,1.2-10.1,1.9l0.1-0.9c-8.8,0.7-13.2,1-24,2.4l2.1-0.9c-6.1,0.6-7.5,3.4-13.1,4l-1.8-1.1c-10.7,1.1-21.5,1.2-32,3.4
						c0.2-0.2,0.4-0.6,2.2-0.8c-5,0.5-19.5,1.3-17.5,2.7c-0.2-1-11,1.1-16.7,2.1l0.8-0.9c-4.8,1.5-4.9,1.8-11.6,2.7
						c-1.6,0.1-1.5-0.4,0.7-0.5c-5.4,0.2-4.1,1.1-10.6,1.4l2.4-0.7c-5.5,0.5-5.1,0.7-8,1.6c-3.4,0.6-10.5,0.9-11.4,0.3
						c-0.7,0.5-3.7,1.3-6.9,1.4c-0.5-0.2,0.7-0.5,1.3-0.6c-9.3,0.5-13.6,2.2-20,2.2c-0.2-0.2-0.6-0.3-1.1-0.3
						c7.3-0.7,13.2-1.3,12.7-1.2c-0.1-0.6-6-0.1-1.4-1.5c-4.7,1-12.7,2.8-18.5,3.1c-0.3,0-0.6-0.1-0.8-0.1l0.6-0.1
						c-1.3,0.1-2.5,0.3-3.6,0.5c-1.8,0.1-3,0.1-4.8,0.3c-0.7-0.4-6.8,0.5-9.8,0.7c0.3,0.6-3.6,0.9,0.1,1c-0.5,0,0.5-0.1,2.5-0.4
						c0.4-0.1,1-0.1,1.3-0.2c-0.1,0-0.1,0-0.2,0.1c1.9-0.2,4.5-0.5,7.3-0.8c-2.3,0.6-4.7,1.1-8,1.1c-1.5,0.6-3.1,1.1-4,1.4
						c-4.1-0.5-11.9-0.1-13.1-0.5c-9,1.3-21.2,2.5-26.7,4.1c-2.5,0.4-3,0-3.9-0.1c1.5-0.3,3.2-0.4,4-0.7c-5.1,0.8-15.2,1.7-16.3,2.5
						c-6.5,0.3,3.6-1-5.3,0l1.2-0.3c-8.8,0.4-15.8,1.6-23.1,2.7c-7.3,1.1-14.8,2.2-24.6,2.6c1.3-0.1,2-0.1,2.3,0
						c-11,0.9-22.4,2.2-33.7,3.4c-11.3,1.2-22.6,2.4-33.5,3.2c-6.2,0.5-6.8,0.9-10.6,1.5l-1.4-0.2l-6.4,1
						c-9.1,1.2-15.9,0.9-27.5,2.5l1.5,0c-4.2,0.4-13.2,1.4-12.5,1.2c-0.4,0.1-1.3,0.3-3,0.4l-0.1-0.1l-10.2,1.3
						c-7.9,0.7,1.2-0.6-10.4,0.6c-4.3,0.5-12.2,1.6-10.6,1.5c1.7-0.2,4.4-0.4,4.6-0.3l-3.9,0.4c-0.7,0.4-3.7,0.9,6,0.2l6.7-0.8
						l2.2,0l-5.7,0.5c3.2-0.1,5.3-0.5,7.5-0.8c0.5,0,1.5,0,2.8-0.1l6.6-0.9c0.8,0.1-2.9,0.6,1.5,0.2c3.1-0.5-3-0.1,2.1-0.6
						c3.2-0.1,2.3,0.1,6.1-0.4c0.5,0.1-0.3,0.2-1.7,0.4c3.4-0.4,8.9-0.9,10.6-1.2c3.4-0.1,11.3-1.1,11.1-0.7c1-0.2,5.9-0.9,9-1.2
						c-5.6,1.1,11.6-1,10.1-0.3c4.1-0.9,15.1-1.6,22.4-2.6c-0.4,0.1-1.2,0.3-1.9,0.3c4.2-0.3,5.4-0.3,8.1-0.4
						c0.5-0.6,7-1.3,10.4-1.9c5.2,0-3,0.9-1.4,1.2c-0.3-0.4,8.8-1.2,7.1-1.4c3.9,0,3.4-0.2,5.4,0.1c0.6-0.8,3.6-0.4,6.8-1.2
						c5.7-0.2,1.5,0.5,7.7-0.2C75.4,428,69.9,428.8,69.9,428.8z M217.3,413.6C217.3,413.6,217.3,413.6,217.3,413.6
						c-1.3,0.1-2.4,0.3-3,0.3C214.9,413.8,215.8,413.7,217.3,413.6z M229.7,412.4c-1.5,0.1-3.4,0.3-5.4,0.5c-0.5-0.2,0-0.5,1.2-0.6
						C224.9,412.5,227.8,412.3,229.7,412.4z M203,410.4c2-0.3,2.6-0.2,2.9-0.1c-0.9,0.1-2,0.3-3.4,0.4c-0.1,0-0.2,0.1-0.2,0.1
						C202.5,410.7,202.7,410.6,203,410.4z"/>
					<path fill="#202020" d="M199.6,411.6c-0.3,0-0.4,0.1-0.8,0.1c0.4,0,0.8,0,1.2,0c0.2-0.1,0.5-0.2,0.7-0.3
						C200.3,411.6,199.9,411.6,199.6,411.6z"/>
					<path fill="#202020" d="M1323.3,300.4l-0.3,0c0.2,0,0.4,0.1,0.6,0.1C1323.4,300.5,1323.4,300.4,1323.3,300.4z"/>
					<polygon fill="#202020" points="401.1,397.9 401.1,397.7 400,398 					"/>
					<path fill="#202020" d="M1392,297.8c0.1,0.1,0.4,0.2,0.9,0.2C1392.8,297.9,1392.4,297.8,1392,297.8z"/>
					<path fill="#202020" d="M1421.5,294.8l4.2-0.1C1423.8,294.7,1422.5,294.8,1421.5,294.8z"/>
					<path fill="#202020" d="M1444.2,292.8c0.3-0.2,0.3-0.3,0.4-0.4c0,0,0,0,0,0L1444.2,292.8z"/>
					<path fill="#202020" d="M1084.1,332.9c-0.3,0-0.6,0.1-0.9,0.2C1081.2,333.6,1082.6,333.3,1084.1,332.9z"/>
					<path fill="#202020" d="M1190.9,318c-1.1,0.4-2.2,0.8-3.4,1.1C1189.5,319.1,1191,318.9,1190.9,318z"/>
					<path fill="#202020" d="M964.4,346.5C964.4,346.5,964.4,346.5,964.4,346.5c-0.2,0-0.5,0-0.7,0L964.4,346.5z"/>
					<path fill="#202020" d="M1182.6,319.6c1.9,0.1,3.5-0.1,5-0.5C1186,319.2,1184.1,319.2,1182.6,319.6z"/>
					<path fill="#202020" d="M1542.3,281.9l1.1-0.1c0,0,0,0,0.1-0.1L1542.3,281.9z"/>
					<path fill="#202020" d="M1543.5,281.7l1.2-0.2C1544.2,281.6,1543.7,281.6,1543.5,281.7z"/>
					<path fill="#202020" d="M1547.3,281.1l-2.5,0.4C1545.6,281.4,1546.7,281.3,1547.3,281.1z"/>
					<path fill="#202020" d="M1512.3,285.2l-0.3,0.2C1512.2,285.3,1512.3,285.3,1512.3,285.2z"/>
					<path fill="#202020" d="M1503.2,286.3c2.2-0.2,5.5-0.2,8.5-0.7l0.3-0.2C1510.6,285.9,1505.3,285.7,1503.2,286.3z"/>
					<path fill="#202020" d="M1464.9,287l7.7-0.5c-1.4-0.2-3.2-0.4,0.3-0.8C1463.1,285.7,1474.9,286.3,1464.9,287z"/>
					<path fill="#202020" d="M1441.1,288.7c4.1-0.5-0.1-0.5,0.1-0.7C1438.6,288.5,1438,288.6,1441.1,288.7z"/>
					<path fill="#202020" d="M1269.7,304.3l0.3-1.4C1266.8,303.4,1270,303.4,1269.7,304.3z"/>
					<polygon fill="#202020" points="1237.6,314.7 1240.8,315.2 1242.1,313.8 					"/>
					<polygon fill="#202020" points="1217.3,306.3 1218.6,306 1213.4,307 					"/>
					<path fill="#202020" d="M929.7,335.2l1.1,1.7C932.9,336.3,933.1,334.2,929.7,335.2z"/>
					<path fill="#202020" d="M805.7,349.8c-1.4-0.7-5-0.8-7,0.2C801.5,349.9,804.3,350.2,805.7,349.8z"/>
					<polygon fill="#202020" points="433.2,386.1 435.7,385.4 431,386.2 					"/>
				</g>
			</g>
		</g>
	</g>
</g>
<g id="BLUE" display="none">
	<g display="inline">
		<defs>
			<rect id="SVGID_2_" y="-24" width="1280" height="505"/>
		</defs>
		<clipPath id="SVGID_3_">
			<use xlink:href="#SVGID_2_"  overflow="visible"/>
		</clipPath>
		<g clip-path="url(#SVGID_3_)">
			<linearGradient id="SVGID_4_" gradientUnits="userSpaceOnUse" x1="1270.4919" y1="11.7636" x2="1277.0035" y2="11.7636">
				<stop  offset="0" style="stop-color:#55FFE0"/>
				<stop  offset="1" style="stop-color:#002CAA"/>
			</linearGradient>
			<path fill="url(#SVGID_4_)" d="M1274.7,12.3c2.1-0.2,2.4-0.7,2.2-1.1l-6.5,0.4C1271.4,12,1270.1,12.6,1274.7,12.3z"/>
			<linearGradient id="SVGID_5_" gradientUnits="userSpaceOnUse" x1="151.3626" y1="81.9671" x2="156.9454" y2="81.9671">
				<stop  offset="0" style="stop-color:#55FFE0"/>
				<stop  offset="1" style="stop-color:#002CAA"/>
			</linearGradient>
			<path fill="url(#SVGID_5_)" d="M151.6,82.4c2-0.1,3.9-0.2,5.4-0.3c-1.9-0.2-4.8-0.2-4.2-0.5C151.5,81.6,151.1,82,151.6,82.4z"/>
			<linearGradient id="SVGID_6_" gradientUnits="userSpaceOnUse" x1="1177.7191" y1="17.3586" x2="1178.7742" y2="17.3586">
				<stop  offset="0" style="stop-color:#55FFE0"/>
				<stop  offset="1" style="stop-color:#002CAA"/>
			</linearGradient>
			<path fill="url(#SVGID_6_)" d="M1178,17.3c-0.1,0.1-0.1,0.1-0.3,0.2c0.4-0.1,0.7-0.2,1.1-0.2L1178,17.3z"/>
			<linearGradient id="SVGID_7_" gradientUnits="userSpaceOnUse" x1="1250.2505" y1="14.086" x2="1251.0531" y2="14.086">
				<stop  offset="0" style="stop-color:#55FFE0"/>
				<stop  offset="1" style="stop-color:#002CAA"/>
			</linearGradient>
			<path fill="url(#SVGID_7_)" d="M1250.6,14.1c0.2,0,0.4,0,0.5-0.1l-0.8,0c0.1,0,0.1,0.1,0.2,0.1
				C1250.5,14.1,1250.5,14.1,1250.6,14.1z"/>
			<linearGradient id="SVGID_8_" gradientUnits="userSpaceOnUse" x1="880.2921" y1="35.8648" x2="882.1476" y2="35.8648">
				<stop  offset="0" style="stop-color:#55FFE0"/>
				<stop  offset="1" style="stop-color:#002CAA"/>
			</linearGradient>
			<path fill="url(#SVGID_8_)" d="M882.1,36c-0.5-0.1-0.8-0.2-0.9-0.4l-1,0.1C880.9,35.8,881.6,35.9,882.1,36z"/>
			<linearGradient id="SVGID_9_" gradientUnits="userSpaceOnUse" x1="1102.1978" y1="22.2885" x2="1112.2894" y2="22.2885">
				<stop  offset="0" style="stop-color:#55FFE0"/>
				<stop  offset="1" style="stop-color:#002CAA"/>
			</linearGradient>
			<path fill="url(#SVGID_9_)" d="M1107.7,23.2c4.2-0.6,4.9-1.3,4.5-1.8l-10,0.6C1102.1,22.6,1104,23.3,1107.7,23.2z"/>
			<linearGradient id="SVGID_10_" gradientUnits="userSpaceOnUse" x1="1137.312" y1="19.7459" x2="1140.2543" y2="19.7459">
				<stop  offset="0" style="stop-color:#55FFE0"/>
				<stop  offset="1" style="stop-color:#002CAA"/>
			</linearGradient>
			<path fill="url(#SVGID_10_)" d="M1139.9,19.8c0.2-0.1,0.3-0.2,0.4-0.2l-2.9,0.2C1138.2,19.9,1139,19.9,1139.9,19.8z"/>
			<linearGradient id="SVGID_11_" gradientUnits="userSpaceOnUse" x1="982.6967" y1="29.4254" x2="983.0501" y2="29.4254">
				<stop  offset="0" style="stop-color:#55FFE0"/>
				<stop  offset="1" style="stop-color:#002CAA"/>
			</linearGradient>
			<path fill="url(#SVGID_11_)" d="M983.1,29.5c-0.1,0-0.1,0-0.2-0.1l-0.2,0C982.8,29.4,982.9,29.4,983.1,29.5z"/>
			<linearGradient id="SVGID_12_" gradientUnits="userSpaceOnUse" x1="1186.738" y1="14.8555" x2="1260.2079" y2="14.8555">
				<stop  offset="0" style="stop-color:#55FFE0"/>
				<stop  offset="1" style="stop-color:#002CAA"/>
			</linearGradient>
			<path fill="url(#SVGID_12_)" d="M1191.4,16.6c-6.3,0.3-0.1-0.2-4.6,0.8c6.7,0.2,7.2-0.2,11.7-0.8c-0.7,0.5,1.8,1,3.6,0.9
				c4.2-1.1,11.5-1.3,17.4-2.1l0,0.4c10-1.1,21.1,0.1,31.1-1.7c0,0-0.1,0-0.1,0c-0.1,0-0.3-0.1-0.5-0.1l-1.5-0.1
				c-1.9,0-4.1,0.3-3.9-0.2l3.9,0.2c0.6,0,1.1,0,1.5,0.1l0.3,0c-3.4-0.9,6.2-1.3,10-1.8l-63.5,3.9l0,0.2c0-0.1,0-0.1,0-0.1l-6.9,0.4
				C1190.2,16.6,1190.8,16.6,1191.4,16.6z"/>
			<linearGradient id="SVGID_13_" gradientUnits="userSpaceOnUse" x1="199.5972" y1="415.6921" x2="200.848" y2="415.6921">
				<stop  offset="0" style="stop-color:#55FFE0"/>
				<stop  offset="1" style="stop-color:#002CAA"/>
			</linearGradient>
			<path fill="url(#SVGID_13_)" d="M200.8,415.6c-0.3,0-0.8,0.1-1.3,0.1c0.3,0,0.7,0,1.1-0.1C200.7,415.7,200.8,415.6,200.8,415.6z"
				/>
			<linearGradient id="SVGID_14_" gradientUnits="userSpaceOnUse" x1="819.5457" y1="39.3894" x2="823.6089" y2="39.3894">
				<stop  offset="0" style="stop-color:#55FFE0"/>
				<stop  offset="1" style="stop-color:#002CAA"/>
			</linearGradient>
			<path fill="url(#SVGID_14_)" d="M823.6,39.3l-4.1,0.3C821.4,39.5,822.7,39.4,823.6,39.3z"/>
			<linearGradient id="SVGID_15_" gradientUnits="userSpaceOnUse" x1="1179.2793" y1="356.4249" x2="1182.8174" y2="356.4249">
				<stop  offset="0" style="stop-color:#55FFE0"/>
				<stop  offset="1" style="stop-color:#002CAA"/>
			</linearGradient>
			<path fill="url(#SVGID_15_)" d="M1179.3,356.5l3.4-0.2c0,0,0,0,0.1,0C1180.6,356.3,1179.7,356.4,1179.3,356.5z"/>
			<linearGradient id="SVGID_16_" gradientUnits="userSpaceOnUse" x1="1323.5895" y1="345.6132" x2="1323.6144" y2="345.6132">
				<stop  offset="0" style="stop-color:#55FFE0"/>
				<stop  offset="1" style="stop-color:#002CAA"/>
			</linearGradient>
			<path fill="url(#SVGID_16_)" d="M1323.6,345.6L1323.6,345.6C1323.6,345.6,1323.6,345.6,1323.6,345.6z"/>
			<linearGradient id="SVGID_17_" gradientUnits="userSpaceOnUse" x1="-119.215" y1="219.0244" x2="1488.416" y2="219.0244">
				<stop  offset="0" style="stop-color:#55FFE0"/>
				<stop  offset="1" style="stop-color:#002CAA"/>
			</linearGradient>
			<path fill="url(#SVGID_17_)" d="M-57.3,432.6c11.6-0.8,2.4,0.1,10.4-0.4l10.2-0.8l0.1,0.1c1.6,0,2.6-0.2,3-0.2
				c-0.7,0.2,8.3-0.5,12.5-0.7l-1.5,0c11.5-1.1,18.3-0.9,27.5-1.6l6.4-0.7l1.4,0.1c3.8-0.4,4.4-0.6,10.6-0.9
				c10.9-0.5,22.2-1.2,33.5-2c11.3-0.8,22.7-1.6,33.7-2.1c-0.3,0-1,0-2.3,0c9.7-0.2,17.3-0.9,24.6-1.6c7.3-0.7,14.3-1.5,23.1-1.7
				l-1.2,0.2c8.9-0.6-1.2,0.2,5.3,0c1.2-0.5,11.2-1.1,16.3-1.6c-0.8,0.1-2.5,0.3-4,0.4c1,0,1.4,0.3,3.9,0c5.6-1,17.8-1.8,26.7-2.6
				c1.1,0.3,9,0,13.1,0.3c0.9-0.2,2.5-0.6,4-0.9c-0.4,0-0.8,0-1.2,0c0.4,0,0.5-0.1,0.8-0.1c-2,0.1-3,0.2-2.5,0.2
				c-3.7-0.1,0.2-0.3-0.1-0.7c3-0.2,9-0.7,9.8-0.5c1.8-0.1,2.9-0.1,4.8-0.2c1.1-0.1,2.3-0.3,3.6-0.3l-0.6,0.1c0.2,0,0.5,0.1,0.8,0.1
				c5.8-0.2,13.8-1.4,18.5-2c-4.6,0.9,1.2,0.5,1.4,0.9c0,0,0,0,0,0c0,0,0,0,0,0c-0.4,0-5.9,0.3-12.7,0.8c0.5,0,1,0,1.1,0.2
				c6.4,0,10.8-1.1,20-1.4c-0.6,0.1-1.8,0.3-1.3,0.4c3.3-0.1,6.2-0.6,6.9-0.9c0.9,0.3,7.9,0.2,11.4-0.2c3-0.5,2.5-0.7,8-1l-2.4,0.5
				c6.5-0.2,5.2-0.8,10.6-0.9c-2.2,0-2.3,0.3-0.7,0.3c6.8-0.6,6.9-0.8,11.6-1.7l-0.8,0.5c5.4-0.6,15.3-1.8,16.6-1.4
				c-0.8-0.8,12.8-1.3,17.6-1.6c-1.7,0.1-2,0.4-2.2,0.5c10.4-1.4,21.3-1.4,32-2.1l1.8,0.7c5.6-0.4,7-2.1,13.1-2.5l-2.1,0.5
				c10.8-0.9,15.2-1.1,24-1.5l-0.1,0.6c3.1-0.5,7-0.7,10.1-1.2c3.7,0.5,10.8-0.2,18.6-0.9c7.8-0.7,16.4-1.4,23.1-1l0.6-1.2
				c5-0.3,11.4-1,13.9-0.2l-1.1,0.1c-0.4,0.9,5-0.3,8.2-0.3c2.3-0.3,4.6-1,2.6-1.1c13.4-0.3,33.1-2.2,41.5-1.6
				c13.3-1.3,23.2-3,37.6-3.8l-0.1,0.2c4.9-0.1,14.7-0.4,14.8,0.7c10.3-0.9,16.7-2.9,29.1-3.2l-2.6,0.6c3.2,0,8.1-0.9,9.3-1.1
				c1.1,0,0.3,0.2,0.2,0.4c3,0.2,4.7-0.5,7-0.8l-0.9,0.5c10,0.2,25.3-2.5,38-3.1c-2.3,0.3-1,0.7,0,0.8c5-1.7,19.3-2.3,24.6-3
				l-3.2,0.8c10.2-1.6,9.2,0.9,19.3-0.7l-6-0.4c4.2,0,7.7-0.5,6.6-1.1c4.9,0.1,0.8,1,8.1,0.7c0.4,0.4-5,0.6-2.6,1l10.5,0.4v0
				c-8-0.4,4.9-1.4,0.1-1.8c5.9,0.1-1.1,1.5-0.4,1.8c0.3,0,0.4,0,0.7,0l-0.7,0c0.3,0.1,1.6,0,4.9-0.3c-1.2-1.7,8.4-0.6,3-2.1
				c14.4-1.1,26.7-0.7,38.9-2.3c5.3,1.5,24.5-1.5,23.6,0.9c7-0.4,12.6-1.2,16.7-2.5c-1.4-0.1-3.2,0.3-4.6,0.5
				c1.7-0.7,10.1-1.4,13.6-1.6c-4.5,0.8-11.8,1.8-15.3,2.9c6.3-0.6,15-2.1,18.5-2.6l1.8,1.1c5.2-1.3,4.6,0.7,9.8-0.9l-1.1-0.3
				c9.8-0.5,9.7-1.8,18.8-2.6l-0.3,0.5c3.2,0,7.6-1.5,10.9-0.5l-5.9,0.4c0.7,0.9,5.4,1,7.5,1.3c6.3-0.6,2-1.6,5.1-2
				c1.5,0.8,0.4,0.4-1.7,1.4c7-0.8,16.4-1.7,21.3-3.2c0.3,0.1,0,0.3,0,0.3c7.4-0.3,13.6-2.4,18.2-1.9l-1.4,0.2
				c6.1,0.9,15-2.3,16.6-0.1c2.8,0.2-6.3,0.3-1.7,1.2c8.8,0.2,5.5-2.3,13.2-2.2c-1.1,0-0.7,0.1-1,0.3c5.5-0.4,12.9-1.1,19-1.8
				c-0.3-0.1-0.6-0.1-0.8-0.2l2.1,0c-0.4,0-0.9,0.1-1.3,0.1c7.8,1.5,23-2,32-0.2c-2.6-0.6,1.3-1,1.9-1.4c0-0.1,0.1-0.1,0.1-0.1
				c0,0,0,0.1-0.1,0.1c-0.1,0.1-0.1,0.2,0.1,0.3c3.2-0.1,3.4-0.9,4.6-1.4c-0.2,0-0.3-0.1-0.5-0.1c1-0.2,1.4-0.2,2-0.1
				c0.3,0,0.5,0,0.9,0c-0.3,0-0.6,0-0.9,0c-0.7,0-1.2,0.1-1.5,0.2c2.7,0.5,8.6-1.3,10.3-1c0-0.5,2.5-0.6,5.3-0.7
				c-5.5,1-1.6,1.2-4,2.2c8.4-0.3,9.3-2.9,18.1-3.1l5,0.7c0.7-1.6,8.9-1.5,8.7-2.1c-0.5-0.1-0.9-0.2-1.1-0.4
				c0.8,0.2,1.1,0.3,1.1,0.4c1.6,0.4,3.8,0.5,3.6,1.3c3.4-0.6,8.8-0.1,10.1-1.2l-3.5-0.2c10.9-0.1,17-2.8,25.5-2.2l0.2,2.3
				c5.7,0.6,10.1-1.9,15.1-0.8c-1.8-0.7-2.1-0.4,1.3-1.4c-2.1,0-5.9,0.8-9.4,1l7.2-1.8l-11.5,1.4c4.8-1.2,4.5-1,2.3-1.8
				c6.9-1.2,7.8,0.6,14.4-0.7c2.5,0.2,0.1,1.2,3,1.5c5.2-1.1,10.4,0.5,14.3-0.2c0.1,0,0.1,0,0.2,0c0.4-0.1,0.9-0.2,1.3-0.3
				c0.9,0.1-0.4,0.2-1.3,0.3c-0.1,0-0.1,0-0.2,0c-0.4,0.1-0.7,0.2-0.6,0.4c3.8-0.5,6.6-0.5,7.7-1.3l-3.4-0.1c-0.5,0-1.2,0-1.9,0
				l1.9,0c2.9-0.1,3.3-1.1,8.9-0.9c3.1-0.7,4.8-2,1.3-1.8c1.4-0.2,4.6,0.2,3.6,1c8.7-0.5,3.8-2.7,12.3-2.1c0.7-0.1,1.4-0.2,0.2,0
				c-0.1,0-0.1,0-0.2,0c-0.6,0.1-1.2,0.3-0.8,0.4c1.4,0,2.6,0,3.6-0.1c0.4-0.1,1-0.1,1.6-0.2c-0.5,0.1-1.1,0.1-1.6,0.2
				c-4,0.6,3.4,1.5-4.6,1.6c1.2,1.2,6.7-0.1,9.5,0.2c4.1-1.1,0.2-1.8,2.2-2.5c0,0.4,1.8,0.3,3.9,0.3l-2.2-0.8
				c1.8-0.1,3.5-0.2,5.6-0.6l-3.5,0.6c3.9-0.1,10,1.1,16.6-0.2c-1.7,0.5-5.2,1.4-0.6,1.6c7.3-1,1.8,0.3,6.1,0.7
				c7.3-0.6,1-1.7,12-1.8c1.2-0.1,0-0.5-1.2-0.7c-0.5,0-0.9,0-1.5,0c0.3-0.1,0.9-0.1,1.5,0c7,0,10.9-0.8,17.4-0.7
				c-2.4-0.1-3.7-0.3-0.1-0.9c-1.7,0.8,6,0.3,8.9,0.6l0.7-0.5c2.3,0.3-0.1,0.7-1.8,0.9c0,0.1-0.5,0.3-1.6,0.4
				c-0.3-0.1,0.6-0.2,1.6-0.4c0-0.2-0.6-0.3-2-0.1c-3.5,0.6-1.9,2.2,3.7,2c5.9-0.8,4.8-1.9,3.7-2.3c8.1,0,7.2-2.5,15-2.2
				c1.8-0.1,7.9,1.3,13.5,1.1c2.7-1.2-7.1-0.3-4-1.4c9.7,1.9,18.8-2.6,31.2-1.8l-1.3,1.2c2.8-0.1,5.6-0.2,8.8-0.5l-4.3-0.4
				c2.8-0.4,9.5-0.6,7.4,0.4c6.2-1.3,7.7-0.8,13.7-0.9c-6.3,0.3-0.1-0.2-4.7,0.7c6.7,0.2,7.2-0.3,11.7-0.8c-0.7,0.4,1.8,0.9,3.6,0.8
				c4.2-1,11.5-1.2,17.5-2l0,0.3c10-1,21.1-0.2,31.1-1.7c0,0-0.1,0-0.1,0c-0.1,0-0.3,0-0.5-0.1l-1.5,0c-1.9,0-4.1,0.3-3.9-0.1
				l3.9,0.1c0.6,0,1.1,0,1.5,0l0.3,0c-3.6-0.7,7.7-1.1,10.8-1.7c0.7,0.2,1.1,0.6,2.8,0.5c0-0.9,3.8-0.7,5.2-1.1
				c3.5,0.1-0.3,1,5.7,0.6c2.3-0.2,2.5-0.7,2.2-1c-0.3-0.1-0.5-0.2-0.5-0.3c0.2,0.1,0.4,0.1,0.5,0.3c1.3,0.4,5.2,0.5,8.3,0.4
				c-1,0.3-2.8,0.1-3.5,0.2c-0.3,0.5,1.8,0.2,1.8,0.7c2.8-0.1,1-0.8,4.5-0.8l-3.1,0.8c1.4,0.1,3.2-0.3,3.9-0.4
				c-2.1,0.3-1.7,0.9-1.3,1.3c8-1,1.3-1.8,1.6-2.5c7.8,0,13.7-1.1,19.6-1.5l-1,0.8c2.9-0.3,4.3-0.5,5.3-0.9l-1.2,0.1l2.1-0.5
				c-0.3,0.1-0.6,0.3-0.9,0.4l4.5-0.3c-2.5,0.4-3.4,0.7-3.5,1.2c4.7-0.5,11.3-0.7,12.4-1.6l-0.2,0.2c6.4,0,19.7-0.6,19.3-0.3
				c6.8-0.7,15.5-0.7,15.6-1.5c-1,0.1-1.8,0.3-2.3,0.5c0.4-0.3,0.7-0.9,1.8-0.9c0.4,0.2,0.6,0.3,0.6,0.4c4-0.4,10.7,0.3,13.5-0.7
				c4.9,0.2,0.3,0.2-1.1,0.8c4.9,0.2,9.6-1.3,11.4-0.4c5.6-0.6-1.3-0.1,0.5-0.7c1.3,0.8,10.5-0.5,15.8-0.3c2.3-0.5-2.4-0.1,1.6-0.6
				c-0.4,0.2,1.8,0.1,2.9,0.1l1-0.6c0,0,1.4,0.2,2.8,0.4c1.4,0.2,2.8,0.4,2.8,0.4c2-0.3,2.8-0.4,3.2-0.6l-51-328.1
				c-2.5,0.1-5.1-0.3-6.9-0.2c1.4-0.6,4.6-0.1,6.8,0l-0.3-1.9c-1,0-1.9,0-3-0.1c0,0,2.1-0.5,2.8-0.9l-0.1-0.5
				c-0.1-0.1-0.3-0.1-0.6-0.1c-8.4,1.1-9.9,2.5-18.9,3.7c-10.3,2.4-20.6,0.1-27.8,1.8c-0.3,0.5,5.6,0.5,0.9,1.1
				c0.7-1-2.9-0.4-3.2-0.8c-5,1.7-7.7,0.1-11.2,1.3c0.8-0.4-2.3-0.6-4.3-0.8c-0.1,0.1-0.1,0.3-0.4,0.5l0.3-0.5c0,0,0,0,0,0
				c0.4-1.2-5.8-0.1,1.5-2.2c-7.5,2.2-13.8,0.4-19.1,3.4l2,0.2l-7.9-0.1l0.3,0c1.1,0,2.4,0,4.2,0.1l-4.2-0.1c-3.4,0-3.9,0.3-8.6-0.6
				c1.9-0.4,4.7-0.6,6.6-1c-4.3-0.8-8.5,1.4-13.1,1.7c0.1-0.9,4.8-0.6,3.2-1.5c-3.3,0.1-6,0.8-9,1.2l0.4-0.5c-8.3-0.6-2.8,2.5-9,1.2
				c0.2,0.3-0.5,0.6-0.1,0.9c0.5,0.1,0.9,0.2,0.9,0.2c-0.5-0.1-0.8-0.1-0.9-0.2c-2.3-0.4-7.6-0.9-2.5-1.8c-2.8,0.2-6,0.8-7.3,1.4
				c2.5,0.5,3,0.2,4.1,1l-11.3,1.1c-1.3,0.1,0.9-0.5,2.5-0.6c-13.7-1.7-26.7,3.7-42.2,1.6c1.8,0.7-1,0.7-2.4,1.3
				c-4.9,0-12.3,0.7-16.9,0.5l1.4-0.6c-11.5,1.3-19.4,2.6-27.1,2.7c-0.3,0.2-0.1-0.8,1.3-1c-5.5,1.3-12.8-1.3-14,0.8l2.1,0
				c-11.2,0.3-23.4,2.5-35,3.4c-2.9-1.1,6.7-0.5,4.1-1.8c-8.1,0-16.1,1.5-24.9,1.6c1.4-0.2,1.1-0.4,1.7-0.5
				c-8.8-0.3,1.1,1.1-6.2,1.4c0.3-0.6-0.1-0.7-2.6-0.9l-2,1.1c-0.4-0.1-0.4-0.9,0.6-1.2c-3.1,1.5-12.9,1.2-15.3,2.5
				c-0.7-0.3,1-1.5-0.1-1.9c-3.9-0.1-6.5,0.5-9.1,1.1c0,0.6-1.5,0.7-3.4,0.7c-1.5,0.2-3.1,0.4-5,0.3c1.6-0.3,3.4-0.3,5-0.3
				c1.2-0.2,2.3-0.4,3.4-0.7c0,0,0,0,0,0c-2.9-0.7-9.5-0.2-8.1-0.4c-7.1,0-1,0.7-6.2,1.8l5.7,0.2l-9.8,0.8l3.8-0.8
				c-4.6-0.2-9.1,1.1-14.3,1.4l2.5,0.6l-5.9,0.8c-0.8-1.4-7.7,0.1-4.7-1.7c-11.1-0.1-17.9,2.1-27.8,2.9c-0.2,0-0.3,0-0.6,0
				c0.2,0,0.4,0,0.6,0c1-0.1,0.5-0.3,0.8-0.6c-6,0-9.4,1-12.9,1.9c0.7-0.5,2.1-0.7,2-1.1c-7,0.4-4.1,1.1-11.8,1.9
				c2.1-0.7,1.3-1-0.8-1c0.4,0.5-1.3,1-2.7,1.2c5.3-3.1-8.5-0.7-5.6-3c-1.1,0.7-10.9,2.3-8.8,3.3c0,0,0,0,0,0c0,0,0,0,0,0
				c0.1,0,0.2,0.1,0.4,0.1l2.1-0.3c0.4,0.8-2.5,0.6-4.7,0.8c-1.5,0.3-2.9,0.4-0.9,0.1c0.3,0,0.6-0.1,0.9-0.1
				c1.1-0.2,2.2-0.4,2.3-0.6c0,0,0,0,0,0c-10.8,1.6-22.4,1.4-34.7,2.8c1-0.4,5.9-1.2,2.7-1.2c-12.3,0.3-19.2,2.2-31.4,3.6
				c-0.8-1.8,13.3-1,13.5-2.8c-12.9,1.2-26.2,2.6-40.5,4.3c-5.4-2.3-13.9,1.9-23.2,0.4c1,0.8-3.4,1.4-8.3,1.7c0,0,0,0,0,0l-0.7,0
				c-2.4,0.1-4.8,0.2-6.7,0.2l6.7-0.2c0.3,0,0.5,0,0.7,0c1.6-0.8-3.6-0.5-2.2-1.1c-4.1,1.1-16.4,2.1-16.2,0.4
				c-0.9,1.7-9.2,0.5-12.5,1.8c1.3,0.1,2.6,0.2,3.8,0.5l-4.6-0.2c0.2-0.1,0.5-0.2,0.7-0.3c-5.5-0.3-11.5,1-18.3,0.9
				c2.3,0.8-4.9,0.9-8.1,1.3c-0.3,0.1-0.7,0.1-0.9,0.2c0.2-0.1,0.6-0.1,0.9-0.2c0.6-0.1,1-0.2,0.8-0.3c-2.2-0.8-7.7,1.2-11.5,0.9
				c-1.8-0.3,0.3-1-2.5-0.9c0,0.7-10.1,2.2-14,1.5c1.8-0.1,1.7-0.5,2.8-0.8c-17.8,2.3-37.2,1.9-55.3,4.5l3.1-1.4
				c-11.7-1-7.2,2.5-16.3,2.9c-24.9,0.8-51,0.5-75.1,2.8c-1.7,0.5,1.1,0.4,1.5,0.9c-2.1,0-2.9-1.1-5.7-0.2l0.7,0.6
				c-11.3-1.2-31.8,3.1-40.4,0.7c-10.4,1.7-18.2,0.3-30.8,2.6c-4.2-0.4,4.5-1.4-1-1.3l-11.8,1.8l0.6-0.1c-11.2,2.7-30.7-0.5-45,1.8
				l0.6-0.1c0.3-0.5-2.8-0.9-5.1-0.6c-0.8,0.4,0.8,0.5,2.3,0.8c-12.8,1.5-15.6,1.7-25.7,2.5c4.3-1-4.2-0.4-4.7-1.3
				c-2.6,0.8,1.7,0.9-4.2,1.8c-8.5,0.6-16.4,0.2-23.5,0.3c-2.7,1-6.5,1-6.5,2.1c-9.6,0.6-14.8,1.4-26.6,2l-0.4-0.4
				c-3,1.5-10.3-0.1-12.4,0.8c0.3-0.5,1.5-0.8,1.1-1.1l-5.3,0.7c2.5-0.6,3.7-1.9-0.7-1.8c-4.4,1.2,1.4,0.6-0.8,1.5l-1.6-1.2
				c-3.4,0.3-4.2,1.8,0.1,1.9c-11.8,0.7-23.3,1.9-33.8,2.3l1-0.9c-5.8,0.6-13.6,1.1-17.2,0.6c-0.1,0.2-1.5,0.8-0.5,1
				c-6.2,1.4-1.8-0.9-6.8,0c-0.5,0.1-1,0.2-1.5,0.3c0.6-0.1,1.1-0.2,1.5-0.3c1.4-0.3,2.8-0.5,2.9-0.9l-14,1.8
				c-0.2-0.6-9-1.4-14.9-0.6c-0.2,0.4,1.6,0.7,3.1,0.7l1.5-0.2c-0.4,0.1-0.9,0.2-1.5,0.2l-3.8,0.5l-3.2-1.2l-5.4,1.6l0.1,0.3l-1.1,0
				l1-0.3l-0.3-1.2c-4,0.5-5.4,2.1-8.8,2.2c-12.5,0-10-0.6-18.9-1.2c-0.7,2.3-14,0.7-16,2.5c-12-1-28.8,1-44.2,1.4l1.2-0.3
				c-6.7-0.7-7.2,2.1-14.4,2.1l1.7-0.4c-9.3-0.7-25,1.4-33.5,2.8c1.7-0.4,0.7-1.1-2.1-0.9c-2.3,0.6,2.5,1.4-2.4,1.3
				c1.2-0.3,0.1-0.7-1-0.7l-4.6,1.4c-12.6,0-27.5,0-40.4,1.4c-2.5-0.3-0.8-0.8-0.2-1.2c-10.3,0.8-20.4,2.4-29.7,3.1l-1.1-1.2
				c-4.6,0.3-2.5,2.1-8.6,1.3c-1.3-0.1,3.9-0.3,5.5-1c-9.3-0.5-5.2,1.6-14,1.9l2.1-1.6c-6.8-0.5-7.5,1.2-9.8,2.2
				c-9.2,2.3-7.1-2.4-19.7-0.4c-1.9,0.8,0.8,1-1.1,1.9c-9.1,0.1-10,1.2-19.1,1.4c-5.1-1.9,4.6-0.3-0.9-2l6.9,0.1
				c-6.1-0.8,5.3-0.6,4.2-1.8c-4.5-0.1-11.1,1.4-16.8,2.1c-0.1-1,6.7-0.5,3.8-1.7l-2.9,0.6c0.5-0.2,0.7-0.4,1.2-0.6l-4.9,0.3
				c0,0.5,0.3,1.1,1.2,1.7c-0.1-0.1-0.4-0.2-0.8-0.3c-5.6,1.7-15.5,1.2-20.4,2.7c0.8-0.3,0.1-0.4-0.2-0.6c-3.5,0.1-6.9,1.7-11.6,2.3
				C5.1,93,9,91.4,1.5,92.2c-1.2,0.9,2.3,2.1-4,2.4c0,0,5.4-1,2.4-1.4c-6.1,0.9-2-0.1-7.8-0.7c-3.1,1.3-6.2,0-6.7,1.9
				c-2.2-1.1-1.6-0.7-5.6-1.4c1.9,0.9-7.2,1.4-6.8,2.6c-1.8-1.3,6.3-2.1,1-3.2c-3.4,1.1-9.8,1.8-10.1,3.4c-2.7-0.2-4-0.6-7.9-0.6
				c-0.1,0-0.2,0-0.3,0c0.1,0,0.2,0,0.3,0c0.6,0,1.2-0.3,1.5-0.4c-7.2,1.4-18.3,1.1-22.2,3.1c1.2-2.2-15.7,0.7-10.4-1.7
				c-3.1,0.2-7.8,1.4-8.8,1.9c0,0.1,0.1,0.1,0,0.2c-0.4,0-0.3-0.1,0-0.2c0.1-1.7-7.7,0-11.2-0.8c-1.6,1-7.2,1-10.5,1.8
				c1.5-0.3,2.2-0.6,1.6-1.1c-3.7,0.9-2.8,0.2-6.2-0.4c-5,0.8,1.1,1.2-1.9,2.2c-4.5-0.1-0.8-1-1.7-1.7l-5.6,1.8l51.9,333.4
				C-65.5,433.2-60.4,432.8-57.3,432.6z M1472.8,336.3c-3.5,0.2-1.7,0.4-0.3,0.5l-7.7,0.3C1474.9,336.6,1463.1,336.3,1472.8,336.3z
				 M1441.2,337.7c-0.2,0.1,4,0.1-0.1,0.5C1438,338.1,1438.6,338,1441.2,337.7z M1270,347.1l-0.3,0.9
				C1270,347.4,1266.8,347.4,1270,347.1z M1218.6,349.1l-1.4,0.2l-3.9,0.4L1218.6,349.1z M1169.1,22.7l-1.3,1l-3.2-0.4L1169.1,22.7z
				 M930.8,368.6l-1.1-1.1C933.1,366.9,932.9,368.2,930.8,368.6z M805.7,376.7c-1.4,0.2-4.2,0-7,0.1
				C800.7,376.2,804.3,376.3,805.7,376.7z M435.7,399.2l-2.5,0.4l-2.2,0.1L435.7,399.2z M40.8,89.6c0.5,0.3,1.1,0.6,2.1,0.9
				C35.5,90.9,41.6,90.3,40.8,89.6z"/>
			<linearGradient id="SVGID_18_" gradientUnits="userSpaceOnUse" x1="199.9773" y1="415.5109" x2="207.978" y2="415.5109">
				<stop  offset="0" style="stop-color:#55FFE0"/>
				<stop  offset="1" style="stop-color:#002CAA"/>
			</linearGradient>
			<path fill="url(#SVGID_18_)" d="M208,415.2c-2.9,0.2-5.4,0.4-7.3,0.5c-0.2,0.1-0.4,0.1-0.7,0.2
				C203.3,415.9,205.7,415.5,208,415.2z"/>
			<linearGradient id="SVGID_19_" gradientUnits="userSpaceOnUse" x1="1323.2866" y1="345.5722" x2="1324.0878" y2="345.5722">
				<stop  offset="0" style="stop-color:#55FFE0"/>
				<stop  offset="1" style="stop-color:#002CAA"/>
			</linearGradient>
			<path fill="url(#SVGID_19_)" d="M1323.6,345.6c0.2,0,0.4,0,0.5-0.1l-0.8,0c0.1,0,0.1,0,0.2,0.1
				C1323.5,345.6,1323.6,345.6,1323.6,345.6z"/>
			<linearGradient id="SVGID_20_" gradientUnits="userSpaceOnUse" x1="1312.9323" y1="5.9726" x2="1436.6664" y2="5.9726">
				<stop  offset="0" style="stop-color:#55FFE0"/>
				<stop  offset="1" style="stop-color:#002CAA"/>
			</linearGradient>
			<path fill="url(#SVGID_20_)" d="M1367.9,6.3c-3-0.2-2.5-0.3-0.2-0.8l-54.3,3.4c-0.2,0.1-0.3,0.2-0.5,0.3l4.5-0.3
				c-2.5,0.5-3.3,0.9-3.4,1.8c4.7-0.6,11.3-0.7,12.3-2.2l-0.2,0.2c6.4,0.1,19.7-0.3,19.4,0.1c6.7-0.9,15.5-0.6,15.5-1.9
				c-1,0.1-1.7,0.4-2.3,0.9c0.4-0.5,0.6-1.6,1.7-1.6c0.4,0.3,0.6,0.5,0.6,0.7c4-0.6,10.8,1.2,13.4-0.7c5,0.6,0.3,0.4-1,1.5
				c4.9,0.6,9.5-2,11.4-0.1c5.5-0.9-1.4-0.3,0.4-1.3c1.5,1.8,10.5-0.3,15.9,0.4c2.3-0.9-2.5-0.3,1.5-1.4c-0.3,0.5,1.8,0.4,2.9,0.4
				l0.9-1.2l5.8,2.6c7.8-1.8-1.9-1.9,8.6-3.1l-0.6,0.1c3.1,1,7.4-1.3,15.2-0.9c-2.7-0.1-1,0.6-1.8,1l3-0.5l-0.4-2.5L1368,5.5
				C1368.2,5.7,1371.8,5.9,1367.9,6.3z M1399.6,4.3c-3.5,0.3-1.6,0.8-0.2,1.1l-7.7,0.1C1401.8,5.1,1389.8,3.6,1399.6,4.3z"/>
			<linearGradient id="SVGID_21_" gradientUnits="userSpaceOnUse" x1="1392.082" y1="343.3322" x2="1392.2988" y2="343.3322">
				<stop  offset="0" style="stop-color:#55FFE0"/>
				<stop  offset="1" style="stop-color:#002CAA"/>
			</linearGradient>
			<path fill="url(#SVGID_21_)" d="M1392.1,343.3C1392.1,343.3,1392.1,343.3,1392.1,343.3l0.2,0
				C1392.2,343.3,1392.2,343.3,1392.1,343.3z"/>
			<linearGradient id="SVGID_22_" gradientUnits="userSpaceOnUse" x1="141.5182" y1="82.9667" x2="144.5542" y2="82.9667">
				<stop  offset="0" style="stop-color:#55FFE0"/>
				<stop  offset="1" style="stop-color:#002CAA"/>
			</linearGradient>
			<path fill="url(#SVGID_22_)" d="M144.6,82.9C144.6,82.9,144.6,82.8,144.6,82.9c-1.5,0.1-2.4,0.2-3,0.2
				C142.2,83,143.3,83,144.6,82.9z"/>
			<linearGradient id="SVGID_23_" gradientUnits="userSpaceOnUse" x1="1395.5823" y1="342.3487" x2="1410.0503" y2="342.3487">
				<stop  offset="0" style="stop-color:#55FFE0"/>
				<stop  offset="1" style="stop-color:#002CAA"/>
			</linearGradient>
			<path fill="url(#SVGID_23_)" d="M1409.8,341.6c-3.3,0.1-6,0.7-9,1l0.4-0.3c-4.8-0.1-5,0.5-5.5,0.9l11-0.7
				C1407.5,342.1,1411.1,342,1409.8,341.6z"/>
			<linearGradient id="SVGID_24_" gradientUnits="userSpaceOnUse" x1="-67.3439" y1="433.4272" x2="-63.2964" y2="433.4272">
				<stop  offset="0" style="stop-color:#55FFE0"/>
				<stop  offset="1" style="stop-color:#002CAA"/>
			</linearGradient>
			<path fill="url(#SVGID_24_)" d="M-67.3,433.5L-67.3,433.5l0.3,0.1c0,0-0.1,0-0.2,0.1l3.9-0.3C-63.4,433.2-65.6,433.4-67.3,433.5z
				"/>
			<linearGradient id="SVGID_25_" gradientUnits="userSpaceOnUse" x1="1409.0159" y1="341.7137" x2="1419.5989" y2="341.7137">
				<stop  offset="0" style="stop-color:#55FFE0"/>
				<stop  offset="1" style="stop-color:#002CAA"/>
			</linearGradient>
			<path fill="url(#SVGID_25_)" d="M1412.9,342c1.9-0.3,4.7-0.5,6.7-0.8c-3.5-0.3-6.9,0.6-10.6,1.1l4.6-0.3
				C1413.4,342,1413.2,342,1412.9,342z"/>
			<linearGradient id="SVGID_26_" gradientUnits="userSpaceOnUse" x1="1277.2087" y1="11.662" x2="1312.9323" y2="11.662">
				<stop  offset="0" style="stop-color:#55FFE0"/>
				<stop  offset="1" style="stop-color:#002CAA"/>
			</linearGradient>
			<path fill="url(#SVGID_26_)" d="M1312.7,8.9l-35.5,2.2c1.6,0.4,5.1,0.6,8,0.6c-1,0.4-2.8,0.1-3.5,0.2c-0.3,0.6,1.8,0.3,1.8,1
				c2.8-0.1,1-1.1,4.5-0.9l-3.1,1.1c1.4,0.1,3.2-0.3,3.8-0.4c-2.1,0.3-1.7,1.2-1.3,1.7c8-1.1,1.2-2.5,1.5-3.5
				c7.8,0.3,13.6-1.3,19.6-1.7l-1,1.1c2.9-0.3,4.2-0.6,5.2-1.2l-1.2,0.1L1312.7,8.9z"/>
			<linearGradient id="SVGID_27_" gradientUnits="userSpaceOnUse" x1="1429.8553" y1="340.1405" x2="1446.2126" y2="340.1405">
				<stop  offset="0" style="stop-color:#55FFE0"/>
				<stop  offset="1" style="stop-color:#002CAA"/>
			</linearGradient>
			<path fill="url(#SVGID_27_)" d="M1446.2,339.3c-3.8,0.7-7.2,0.9-10.4,1.1c-2.1,0.1-4.1,0.3-5.9,0.7l13.4-0.8
				C1442.3,340.1,1441.7,340.1,1446.2,339.3z"/>
			<linearGradient id="SVGID_28_" gradientUnits="userSpaceOnUse" x1="1382.1499" y1="343.3549" x2="1389.5206" y2="343.3549">
				<stop  offset="0" style="stop-color:#55FFE0"/>
				<stop  offset="1" style="stop-color:#002CAA"/>
			</linearGradient>
			<path fill="url(#SVGID_28_)" d="M1389.5,342.8c-2.8,0.2-6,0.6-7.4,1.1c0.2,0,0.4,0,0.6,0.1l5.6-0.3
				C1387.1,343.4,1386.7,343.2,1389.5,342.8z"/>
			<linearGradient id="SVGID_29_" gradientUnits="userSpaceOnUse" x1="1261.1759" y1="12.3014" x2="1265.6554" y2="12.3014">
				<stop  offset="0" style="stop-color:#55FFE0"/>
				<stop  offset="1" style="stop-color:#002CAA"/>
			</linearGradient>
			<path fill="url(#SVGID_29_)" d="M1263.8,12.7c0-0.5,0.8-0.7,1.8-0.9l-4.5,0.3C1261.8,12.4,1262.3,12.8,1263.8,12.7z"/>
			<linearGradient id="SVGID_30_" gradientUnits="userSpaceOnUse" x1="1069.4579" y1="23.9746" x2="1073.092" y2="23.9746">
				<stop  offset="0" style="stop-color:#55FFE0"/>
				<stop  offset="1" style="stop-color:#002CAA"/>
			</linearGradient>
			<path fill="url(#SVGID_30_)" d="M1069.5,24c0.2,0,0.5,0.1,0.9,0.1c1.3-0.1,2.1-0.2,2.7-0.4L1069.5,24z"/>
			<linearGradient id="SVGID_31_" gradientUnits="userSpaceOnUse" x1="968.713" y1="30.1194" x2="974.0016" y2="30.1194">
				<stop  offset="0" style="stop-color:#55FFE0"/>
				<stop  offset="1" style="stop-color:#002CAA"/>
			</linearGradient>
			<path fill="url(#SVGID_31_)" d="M968.7,30.3c1.9,0.1,3.6-0.1,5.3-0.3L968.7,30.3z"/>
			<linearGradient id="SVGID_32_" gradientUnits="userSpaceOnUse" x1="761.9548" y1="43.0573" x2="764.5066" y2="43.0573">
				<stop  offset="0" style="stop-color:#55FFE0"/>
				<stop  offset="1" style="stop-color:#002CAA"/>
			</linearGradient>
			<path fill="url(#SVGID_32_)" d="M762,43.1c0.2,0,0.5,0.1,0.7,0.1c0.8-0.1,1.4-0.2,1.9-0.3L762,43.1z"/>
			<linearGradient id="SVGID_33_" gradientUnits="userSpaceOnUse" x1="202.2977" y1="415.0527" x2="205.9433" y2="415.0527">
				<stop  offset="0" style="stop-color:#55FFE0"/>
				<stop  offset="1" style="stop-color:#002CAA"/>
			</linearGradient>
			<path fill="url(#SVGID_33_)" d="M203,415c-0.4,0.1-0.6,0.2-0.7,0.3c0.1,0,0.2,0,0.2-0.1c1.4-0.1,2.5-0.2,3.4-0.3
				C205.7,414.8,205,414.8,203,415z"/>
			<linearGradient id="SVGID_34_" gradientUnits="userSpaceOnUse" x1="-67.3238" y1="433.5883" x2="-67.2231" y2="433.5883">
				<stop  offset="0" style="stop-color:#55FFE0"/>
				<stop  offset="1" style="stop-color:#002CAA"/>
			</linearGradient>
			<path fill="url(#SVGID_34_)" d="M-67.3,433.6L-67.3,433.6c0,0,0.1,0,0.1,0L-67.3,433.6z"/>
		</g>
	</g>
</g>
<g id="red">
	<g>
		<defs>
			<rect id="SVGID_35_" y="-24" width="1280" height="505"/>
		</defs>
		<clipPath id="SVGID_36_">
			<use xlink:href="#SVGID_35_"  overflow="visible"/>
		</clipPath>
		<g clip-path="url(#SVGID_36_)">
			
				<linearGradient id="SVGID_37_" gradientUnits="userSpaceOnUse" x1="1268.2429" y1="-12.1308" x2="1274.7545" y2="-12.1308" gradientTransform="matrix(0.9956 9.370795e-02 -9.370795e-02 0.9956 23.3886 -63.1957)">
				<stop  offset="0" style="stop-color:#FF4000"/>
				<stop  offset="1" style="stop-color:#FFB22A"/>
			</linearGradient>
			<path fill="url(#SVGID_37_)" d="M1291.4,44.5c2.1,0,2.5-0.5,2.3-0.9l-6.5-0.2C1288,43.8,1286.7,44.4,1291.4,44.5z"/>
			
				<linearGradient id="SVGID_38_" gradientUnits="userSpaceOnUse" x1="149.1136" y1="58.0728" x2="154.6964" y2="58.0728" gradientTransform="matrix(0.9956 9.370795e-02 -9.370795e-02 0.9956 23.3886 -63.1957)">
				<stop  offset="0" style="stop-color:#FF4000"/>
				<stop  offset="1" style="stop-color:#FFB22A"/>
			</linearGradient>
			<path fill="url(#SVGID_38_)" d="M166.6,9c2,0.1,3.9,0.1,5.4,0.2c-1.9-0.4-4.8-0.7-4.1-0.9C166.6,8.3,166.1,8.6,166.6,9z"/>
			
				<linearGradient id="SVGID_39_" gradientUnits="userSpaceOnUse" x1="1175.4701" y1="-6.5358" x2="1176.5251" y2="-6.5358" gradientTransform="matrix(0.9956 9.370795e-02 -9.370795e-02 0.9956 23.3886 -63.1957)">
				<stop  offset="0" style="stop-color:#FF4000"/>
				<stop  offset="1" style="stop-color:#FFB22A"/>
			</linearGradient>
			<path fill="url(#SVGID_39_)" d="M1194.6,40.4c-0.1,0-0.2,0.1-0.3,0.2c0.4,0,0.7-0.1,1.1-0.1L1194.6,40.4z"/>
			
				<linearGradient id="SVGID_40_" gradientUnits="userSpaceOnUse" x1="1248.0015" y1="-9.8084" x2="1248.8041" y2="-9.8084" gradientTransform="matrix(0.9956 9.370795e-02 -9.370795e-02 0.9956 23.3886 -63.1957)">
				<stop  offset="0" style="stop-color:#FF4000"/>
				<stop  offset="1" style="stop-color:#FFB22A"/>
			</linearGradient>
			<path fill="url(#SVGID_40_)" d="M1267.1,44.1c0.2,0,0.4,0,0.5,0l-0.8-0.1c0.1,0,0.1,0.1,0.2,0.1C1267,44,1267.1,44.1,1267.1,44.1
				z"/>
			
				<linearGradient id="SVGID_41_" gradientUnits="userSpaceOnUse" x1="878.0432" y1="11.9704" x2="879.8987" y2="11.9704" gradientTransform="matrix(0.9956 9.370795e-02 -9.370795e-02 0.9956 23.3886 -63.1957)">
				<stop  offset="0" style="stop-color:#FF4000"/>
				<stop  offset="1" style="stop-color:#FFB22A"/>
			</linearGradient>
			<path fill="url(#SVGID_41_)" d="M898.3,31.4c-0.5-0.2-0.8-0.3-0.8-0.4l-1,0C897.1,31,897.7,31.2,898.3,31.4z"/>
			
				<linearGradient id="SVGID_42_" gradientUnits="userSpaceOnUse" x1="1099.9489" y1="-1.6059" x2="1110.0405" y2="-1.6059" gradientTransform="matrix(0.9956 9.370795e-02 -9.370795e-02 0.9956 23.3886 -63.1957)">
				<stop  offset="0" style="stop-color:#FF4000"/>
				<stop  offset="1" style="stop-color:#FFB22A"/>
			</linearGradient>
			<path fill="url(#SVGID_42_)" d="M1124.1,39.7c4.3-0.2,5-0.8,4.6-1.4l-10-0.3C1118.5,38.6,1120.4,39.5,1124.1,39.7z"/>
			
				<linearGradient id="SVGID_43_" gradientUnits="userSpaceOnUse" x1="1135.063" y1="-4.1485" x2="1138.0052" y2="-4.1485" gradientTransform="matrix(0.9956 9.370795e-02 -9.370795e-02 0.9956 23.3886 -63.1957)">
				<stop  offset="0" style="stop-color:#FF4000"/>
				<stop  offset="1" style="stop-color:#FFB22A"/>
			</linearGradient>
			<path fill="url(#SVGID_43_)" d="M1156.4,39.4c0.2-0.1,0.3-0.1,0.4-0.2l-2.9-0.1C1154.7,39.2,1155.5,39.3,1156.4,39.4z"/>
			
				<linearGradient id="SVGID_44_" gradientUnits="userSpaceOnUse" x1="980.4477" y1="5.531" x2="980.8011" y2="5.531" gradientTransform="matrix(0.9956 9.370795e-02 -9.370795e-02 0.9956 23.3886 -63.1957)">
				<stop  offset="0" style="stop-color:#FF4000"/>
				<stop  offset="1" style="stop-color:#FFB22A"/>
			</linearGradient>
			<path fill="url(#SVGID_44_)" d="M999.4,34.3c-0.1,0-0.1-0.1-0.2-0.1l-0.2,0C999.1,34.2,999.2,34.2,999.4,34.3z"/>
			
				<linearGradient id="SVGID_45_" gradientUnits="userSpaceOnUse" x1="1184.489" y1="-9.0389" x2="1257.9589" y2="-9.0389" gradientTransform="matrix(0.9956 9.370795e-02 -9.370795e-02 0.9956 23.3886 -63.1957)">
				<stop  offset="0" style="stop-color:#FF4000"/>
				<stop  offset="1" style="stop-color:#FFB22A"/>
			</linearGradient>
			<path fill="url(#SVGID_45_)" d="M1208,40.9c-6.3-0.3-0.1-0.2-4.7,0.3c6.7,0.9,7.1,0.5,11.7,0.3c-0.7,0.4,1.7,1.2,3.5,1.3
				c4.2-0.7,11.6-0.2,17.6-0.4l0,0.4c10-0.1,21,2,31.1,1.3c0,0-0.1,0-0.1,0c-0.1-0.1-0.3-0.1-0.4-0.1l-1.5-0.2
				c-1.9-0.2-4.1-0.1-3.9-0.5l3.9,0.5c0.6,0,1.1,0.1,1.5,0.2l0.3,0c-3.3-1.2,6.2-0.7,10.1-0.9l-63.6-2l-0.1,0.1c0-0.1,0-0.1,0-0.1
				l-6.9-0.2C1206.8,40.8,1207.4,40.9,1208,40.9z"/>
			
				<linearGradient id="SVGID_46_" gradientUnits="userSpaceOnUse" x1="197.3482" y1="391.7977" x2="198.599" y2="391.7977" gradientTransform="matrix(0.9956 9.370795e-02 -9.370795e-02 0.9956 23.3886 -63.1957)">
				<stop  offset="0" style="stop-color:#FF4000"/>
				<stop  offset="1" style="stop-color:#FFB22A"/>
			</linearGradient>
			<path fill="url(#SVGID_46_)" d="M184.4,345.4c-0.3,0-0.8,0-1.3,0c0.3,0,0.7,0,1.1,0C184.3,345.4,184.3,345.4,184.4,345.4z"/>
			
				<linearGradient id="SVGID_47_" gradientUnits="userSpaceOnUse" x1="817.2967" y1="15.495" x2="821.3599" y2="15.495" gradientTransform="matrix(0.9956 9.370795e-02 -9.370795e-02 0.9956 23.3886 -63.1957)">
				<stop  offset="0" style="stop-color:#FF4000"/>
				<stop  offset="1" style="stop-color:#FFB22A"/>
			</linearGradient>
			<path fill="url(#SVGID_47_)" d="M839.7,29.1l-4.1-0.1C837.5,29.1,838.7,29.2,839.7,29.1z"/>
			
				<linearGradient id="SVGID_48_" gradientUnits="userSpaceOnUse" x1="1177.0303" y1="332.5305" x2="1180.5684" y2="332.5305" gradientTransform="matrix(0.9956 9.370795e-02 -9.370795e-02 0.9956 23.3886 -63.1957)">
				<stop  offset="0" style="stop-color:#FF4000"/>
				<stop  offset="1" style="stop-color:#FFB22A"/>
			</linearGradient>
			<path fill="url(#SVGID_48_)" d="M1164.1,378.3l3.5,0.1c0,0,0,0,0.1,0C1165.4,378.2,1164.5,378.2,1164.1,378.3z"/>
			
				<linearGradient id="SVGID_49_" gradientUnits="userSpaceOnUse" x1="1321.3472" y1="321.7898" x2="1321.3721" y2="321.7898" gradientTransform="matrix(0.9956 9.370795e-02 -9.370795e-02 0.9956 23.3886 -63.1957)">
				<stop  offset="0" style="stop-color:#FF4000"/>
				<stop  offset="1" style="stop-color:#FFB22A"/>
			</linearGradient>
			<path fill="url(#SVGID_49_)" d="M1308.8,381L1308.8,381C1308.8,381,1308.8,381,1308.8,381z"/>
			
				<linearGradient id="SVGID_50_" gradientUnits="userSpaceOnUse" x1="-121.464" y1="195.13" x2="1486.167" y2="195.13" gradientTransform="matrix(0.9956 9.370795e-02 -9.370795e-02 0.9956 23.3886 -63.1957)">
				<stop  offset="0" style="stop-color:#FF4000"/>
				<stop  offset="1" style="stop-color:#FFB22A"/>
			</linearGradient>
			<path fill="url(#SVGID_50_)" d="M-74.2,338.1c11.6,0.3,2.4,0.3,10.4,0.6l10.2,0.2l0.1,0.1c1.6,0.1,2.6,0,3,0
				c-0.7,0.1,8.3,0.3,12.5,0.4l-1.5-0.2c11.6,0,18.3,0.9,27.5,1l6.4-0.1l1.4,0.3c3.8,0,4.4-0.2,10.6,0.1c10.9,0.5,22.2,0.8,33.5,1.1
				c11.3,0.3,22.7,0.5,33.8,1c-0.3-0.1-1-0.1-2.3-0.2c9.7,0.7,17.3,0.7,24.6,0.7c7.3,0,14.4-0.1,23.2,0.5l-1.2,0.1
				c8.9,0.2-1.2,0.1,5.3,0.5c1.2-0.4,11.3,0,16.4-0.1c-0.8,0.1-2.6,0-4,0c1,0.1,1.4,0.4,3.9,0.4c5.6-0.5,17.9-0.1,26.9-0.1
				c1.1,0.4,8.9,0.9,13,1.6c0.9-0.1,2.6-0.3,4.1-0.5c-0.4,0-0.8-0.1-1.2-0.1c0.4,0,0.5,0,0.8,0c-2,0-3,0-2.5,0
				c-3.6-0.4,0.2-0.3,0-0.7c3,0.1,9.1,0.1,9.8,0.4c1.8,0.1,2.9,0.1,4.8,0.2c1.1,0,2.3,0,3.6,0l-0.6,0c0.2,0.1,0.5,0.1,0.8,0.2
				c5.8,0.3,13.9-0.1,18.6-0.2c-4.6,0.4,1.2,0.6,1.3,1c0,0,0,0,0,0c0,0,0,0,0,0c-0.4,0-5.9-0.2-12.7-0.4c0.5,0.1,0.9,0.1,1.1,0.3
				c6.4,0.6,10.8-0.1,20.1,0.5c-0.6,0-1.8,0.1-1.3,0.3c3.3,0.2,6.3,0,7-0.3c0.8,0.4,7.9,0.9,11.3,0.9c3-0.3,2.6-0.4,8.1-0.2
				l-2.4,0.2c6.5,0.4,5.3-0.3,10.7,0.1c-2.1-0.2-2.3,0.1-0.7,0.2c6.8,0,6.9-0.1,11.8-0.6l-0.9,0.5c5.4-0.1,15.4-0.4,16.6,0.1
				c-0.7-0.9,12.9-0.1,17.7,0.1c-1.7,0-2,0.2-2.2,0.3c10.5-0.4,21.4,0.6,32,0.9l1.7,0.9c5.6,0.1,7.1-1.5,13.3-1.3l-2.2,0.3
				c10.8,0.2,15.2,0.3,24,0.7l-0.1,0.6c3.1-0.2,7-0.1,10.2-0.3c3.6,0.8,10.7,0.8,18.6,0.9c7.8,0,16.4,0.1,23,1.2l0.8-1.2
				c5,0.2,11.4,0.1,13.8,1.1l-1.1,0c-0.4,0.9,5,0.2,8.2,0.5c2.4,0,4.7-0.6,2.6-0.8c13.4,1,33.1,0.9,41.5,2.3
				c13.3,0,23.3-0.8,37.8-0.3l-0.2,0.2c4.9,0.3,14.6,1,14.7,2.1c10.4,0,16.9-1.4,29.3-0.5l-2.7,0.4c3.2,0.3,8.2-0.1,9.4-0.2
				c1.1,0.1,0.3,0.3,0.2,0.4c3,0.5,4.7-0.1,7.1-0.1l-0.9,0.4c9.9,1.1,25.4-0.1,38.1,0.5c-2.3,0.1-1.1,0.6-0.1,0.8
				c5.1-1.2,19.4-0.5,24.7-0.7l-3.2,0.5c10.3-0.6,9.1,1.7,19.3,1.1l-6-1c4.2,0.4,7.7,0.2,6.7-0.5c4.9,0.6,0.7,1.1,8,1.5
				c0.3,0.4-5.2,0.1-2.8,0.7l10.3,1.4v0c-8-1.1,5.1-0.9,0.4-1.8c5.9,0.7-1.2,1.4-0.5,1.7c0.3,0,0.4,0.1,0.7,0.1l-0.7-0.1
				c0.3,0.1,1.6,0.2,4.9,0.2c-1-1.8,8.4,0.2,3.2-1.8c14.4,0.3,26.7,1.8,39,1.3c5.2,2,24.5,0.8,23.5,3.1c7,0.2,12.6-0.1,16.9-0.9
				c-1.4-0.2-3.2,0-4.6,0.1c1.8-0.6,10.2-0.4,13.7-0.3c-4.6,0.4-12,0.7-15.5,1.5c6.3,0,15.1-0.7,18.7-0.9l1.7,1.3
				c5.3-0.8,4.6,1.2,9.8,0.1l-1-0.4c9.8,0.4,9.9-0.9,19-0.8l-0.4,0.5c3.2,0.3,7.7-0.8,10.9,0.5l-6-0.1c0.7,0.9,5.2,1.5,7.3,2
				c6.3,0,2.1-1.4,5.3-1.5c1.4,0.9,0.4,0.5-1.8,1.3c7-0.1,16.5-0.2,21.5-1.2c0.3,0.1,0,0.3,0,0.3c7.4,0.4,13.7-1.1,18.3-0.2
				l-1.4,0.1c6,1.5,15.1-0.9,16.5,1.5c2.8,0.5-6.3-0.3-1.8,1c8.8,1,5.7-1.8,13.4-0.9c-1.1-0.1-0.7,0-1.1,0.3
				c5.6,0.1,12.9,0.1,19.1,0c-0.3-0.1-0.6-0.1-0.8-0.2l2.1,0.2c-0.4,0-0.9,0-1.3,0c7.7,2.2,23,0.2,31.8,2.8c-2.6-0.8,1.4-0.9,2-1.2
				c0,0,0.1-0.1,0.1-0.1c0,0,0,0.1-0.1,0.1c-0.1,0.1-0.1,0.2,0.1,0.3c3.2,0.2,3.5-0.6,4.7-0.9c-0.2,0-0.3-0.1-0.4-0.1
				c1-0.1,1.4,0,2,0.1c0.3,0,0.5,0.1,0.8,0.1c-0.3,0-0.6-0.1-0.8-0.1c-0.7-0.1-1.2,0-1.5,0.1c2.6,0.8,8.7-0.5,10.4,0
				c0-0.5,2.5-0.3,5.4-0.2c-5.6,0.4-1.7,1.1-4.2,1.8c8.4,0.5,9.5-2,18.3-1.4l4.9,1.2c0.9-1.5,9-0.7,8.8-1.2
				c-0.4-0.2-0.9-0.3-1.1-0.5c0.8,0.3,1,0.4,1.1,0.5c1.5,0.5,3.7,0.9,3.5,1.7c3.5-0.3,8.8,0.7,10.2-0.2l-3.5-0.5
				c10.9,0.9,17.2-1.1,25.6,0.2l0,2.4c5.6,1.1,10.2-1,15.1,0.6c-1.7-0.8-2.1-0.6,1.4-1.3c-2.1-0.2-6,0.3-9.5,0.1l7.4-1.2l-11.6,0.3
				c4.9-0.8,4.6-0.6,2.5-1.6c7-0.5,7.7,1.4,14.4,0.7c2.5,0.4,0,1.2,2.8,1.7c5.3-0.6,10.3,1.5,14.3,1.2c0.1,0,0.1,0,0.2,0
				c0.4,0,0.9-0.1,1.3-0.2c0.9,0.2-0.4,0.1-1.3,0.2c-0.1,0-0.1,0-0.2,0c-0.4,0.1-0.7,0.1-0.6,0.3c3.9-0.1,6.7,0.1,7.7-0.6l-3.3-0.4
				c-0.5,0-1.2-0.1-1.9-0.2l1.9,0.2c2.9,0.2,3.3-0.8,8.9-0.1c3.2-0.4,4.9-1.5,1.4-1.7c1.4-0.1,4.6,0.6,3.5,1.3c8.7,0.3,4-2.4,12.4-1
				c0.7-0.1,1.4-0.1,0.2,0c-0.1,0-0.1,0-0.2,0c-0.6,0.1-1.2,0.2-0.8,0.3c1.4,0.2,2.5,0.2,3.6,0.2c0.4,0,1,0,1.7,0
				c-0.5,0-1.1,0-1.7,0c-4.1,0.3,3.3,1.9-4.7,1.2c1,1.3,6.7,0.5,9.5,1c4.2-0.7,0.4-1.8,2.5-2.3c0,0.4,1.8,0.5,3.9,0.7l-2.1-1
				c1.8,0.1,3.5,0.1,5.6,0l-3.5,0.3c3.9,0.3,9.8,2,16.5,1.3c-1.8,0.3-5.3,0.9-0.7,1.6c7.4-0.3,1.8,0.4,6,1.3c7.3,0,1.2-1.6,12.1-0.7
				c1.2,0,0.1-0.5-1.1-0.8c-0.5,0-0.9-0.1-1.5-0.1c0.3-0.1,0.9,0,1.5,0.1c7,0.7,10.9,0.3,17.4,1c-2.4-0.3-3.7-0.6-0.1-0.9
				c-1.8,0.7,5.9,0.9,8.8,1.5l0.7-0.4c2.3,0.6-0.1,0.7-1.9,0.8c0,0.1-0.5,0.2-1.6,0.2c-0.3-0.1,0.6-0.2,1.6-0.2c0-0.1-0.6-0.3-2-0.3
				c-3.5,0.2-2.1,2,3.5,2.4c6-0.2,4.9-1.4,3.9-1.9c8.1,0.7,7.4-1.8,15.1-0.8c1.8,0.1,7.7,2,13.3,2.4c2.8-0.9-7-1-3.8-1.7
				c9.4,2.8,19-0.8,31.3,1.1l-1.5,1.1c2.8,0.2,5.6,0.3,8.8,0.3l-4.2-0.8c2.8-0.2,9.5,0.3,7.4,1.1c6.3-0.7,7.7-0.1,13.7,0.4
				c-6.3-0.3-0.1-0.2-4.7,0.3c6.7,0.8,7.1,0.4,11.7,0.3c-0.7,0.4,1.7,1.1,3.5,1.1c4.2-0.6,11.6-0.2,17.6-0.3l0,0.3
				c10,0,21,1.8,31.1,1.2c0,0-0.1,0-0.1,0c-0.1,0-0.3-0.1-0.4-0.1l-1.5-0.2c-1.9-0.1-4.1-0.1-3.9-0.5l3.9,0.5c0.6,0,1.1,0.1,1.5,0.2
				l0.3,0c-3.5-1.1,7.8-0.4,10.9-0.7c0.7,0.3,1,0.7,2.8,0.7c0-0.9,3.9-0.3,5.3-0.6c3.5,0.4-0.4,1,5.6,1.2c2.3,0,2.6-0.4,2.3-0.7
				c-0.3-0.1-0.5-0.2-0.5-0.3c0.2,0.1,0.4,0.2,0.5,0.3c1.3,0.5,5.1,0.9,8.3,1.1c-1.1,0.2-2.8-0.2-3.5-0.1c-0.4,0.4,1.7,0.3,1.7,0.9
				c2.8,0.2,1.1-0.7,4.6-0.3l-3.2,0.5c1.4,0.2,3.2,0,3.9,0c-2.1,0.1-1.8,0.8-1.5,1.1c8.1-0.2,1.5-1.7,1.9-2.4
				c7.7,0.8,13.7,0.2,19.7,0.4l-1.1,0.7c2.9,0,4.3-0.1,5.3-0.4l-1.2,0l2.1-0.3c-0.3,0.1-0.6,0.2-1,0.3l4.5,0.2
				c-2.6,0.1-3.4,0.3-3.6,0.9c4.8,0,11.3,0.4,12.5-0.5l-0.2,0.1c6.4,0.6,19.7,1.2,19.2,1.5c6.8,0,15.5,0.7,15.6,0
				c-1,0-1.8,0.1-2.4,0.3c0.4-0.2,0.8-0.8,1.9-0.8c0.4,0.2,0.5,0.3,0.5,0.4c4.1,0,10.6,1.3,13.5,0.5c4.9,0.7,0.3,0.2-1.2,0.7
				c4.9,0.6,9.7-0.4,11.4,0.7c5.6-0.1-1.3-0.2,0.5-0.6c1.2,0.9,10.5,0.5,15.8,1.2c2.3-0.3-2.4-0.3,1.6-0.5c-0.4,0.2,1.8,0.3,2.9,0.4
				l1-0.5c0,0,1.4,0.3,2.7,0.7c1.4,0.3,2.7,0.7,2.7,0.7c2-0.1,2.9-0.2,3.3-0.3l-20.1-331.5c-2.5-0.1-5-0.7-6.8-0.9
				c1.5-0.4,4.6,0.3,6.8,0.6l-0.1-1.9c-0.9-0.1-1.9-0.2-3-0.4c0,0,2.2-0.2,2.9-0.6l0-0.5c-0.1-0.1-0.3-0.1-0.6-0.2
				c-8.4,0.3-10,1.5-19.1,1.9c-10.5,1.4-20.6-1.8-27.8-0.8c-0.4,0.5,5.5,1,0.8,1.1c0.8-0.9-2.9-0.7-3.1-1.1
				c-5.1,1.2-7.6-0.6-11.3,0.2c0.8-0.3-2.2-0.8-4.2-1.2c-0.1,0.1-0.1,0.3-0.4,0.4l0.4-0.5c0,0,0,0,0,0c0.5-1.1-5.7-0.7,1.7-2.1
				c-7.7,1.5-13.8-0.9-19.4,1.5l2,0.4l-7.8-0.8l0.3,0c1.1,0.1,2.4,0.3,4.2,0.5l-4.2-0.5c-3.4-0.3-3.9,0-8.5-1.4
				c1.9-0.2,4.8-0.1,6.7-0.3c-4.2-1.2-8.6,0.6-13.2,0.4c0.2-0.8,4.8-0.1,3.4-1.2c-3.3-0.3-6.1,0.3-9.1,0.4l0.4-0.5
				c-8.2-1.4-3.1,2.2-9.1,0.4c0.2,0.3-0.5,0.6-0.2,0.8c0.5,0.1,0.9,0.2,0.9,0.3c-0.5-0.1-0.8-0.2-0.9-0.3c-2.2-0.6-7.4-1.6-2.4-2
				c-2.8-0.1-6,0.2-7.4,0.7c2.4,0.8,3,0.4,3.9,1.4l-11.4,0.1c-1.3,0,0.9-0.4,2.5-0.4c-13.5-3-26.9,1.1-42.2-2.4
				c1.7,0.8-1.1,0.6-2.5,1.1c-4.9-0.4-12.3-0.5-16.8-1.1l1.4-0.5c-11.6,0.2-19.6,0.8-27.3,0.2c-0.4,0.2,0-0.8,1.4-0.9
				c-5.6,0.8-12.6-2.5-14-0.5l2.1,0.2c-11.2-0.7-23.6,0.3-35.1,0.1c-2.8-1.3,6.7,0.1,4.2-1.4c-8.1-0.8-16.2,0-24.9-0.8
				c1.4-0.1,1.1-0.3,1.8-0.3c-8.7-1.1,1,1.2-6.3,0.8c0.4-0.6,0-0.8-2.5-1.1l-2.1,0.9c-0.4-0.2-0.3-0.9,0.7-1.2
				c-3.2,1.2-13-0.1-15.5,1.1c-0.7-0.3,1.1-1.4,0.1-1.9c-3.9-0.5-6.6-0.1-9.1,0.3c0,0.6-1.5,0.5-3.4,0.4c-1.5,0.1-3.1,0.1-5-0.2
				c1.6-0.1,3.4,0.1,5,0.2c1.2-0.1,2.3-0.2,3.4-0.4c0,0,0,0,0,0c-2.8-0.9-9.5-1.1-8.1-1.2c-7-0.7-1.1,0.6-6.4,1.2l5.6,0.7l-9.8-0.1
				l3.9-0.5c-4.5-0.6-9.1,0.2-14.4,0l2.4,0.8l-6,0.2c-0.7-1.5-7.7-0.6-4.5-2.1c-11-1.1-18,0.4-27.9,0.3c-0.2,0-0.3,0-0.6,0
				c0.2,0,0.4,0,0.6,0c1,0,0.5-0.3,0.8-0.5c-5.9-0.5-9.5,0.1-13,0.7c0.7-0.4,2.1-0.5,2.1-0.9c-7-0.3-4.2,0.7-11.9,0.8
				c2.1-0.5,1.4-0.9-0.7-1.1c0.4,0.5-1.4,0.8-2.8,0.9c5.6-2.6-8.4-1.4-5.3-3.4c-1.2,0.6-11.1,1.6-9.1,2.6c0,0,0,0,0,0
				c0,0,0-0.1,0-0.1c0.1,0.1,0.2,0,0.4,0.1l2.1-0.2c0.3,0.8-2.6,0.4-4.8,0.3c-1.5,0.1-2.9,0.1-0.9,0c0.3,0,0.6,0,0.9,0
				c1.1-0.1,2.3-0.2,2.3-0.4c0,0,0,0,0,0c-10.9,0.6-22.5-0.7-34.8-0.5c1.1-0.3,6-0.6,2.8-0.9c-12.3-0.9-19.3,0.4-31.6,0.7
				c-0.7-1.8,13.3,0.2,13.7-1.5c-13-0.1-26.3,0.1-40.8,0.5c-5.2-2.8-14.1,0.6-23.1-1.8c0.9,0.9-3.6,1.1-8.4,0.9c0,0,0,0,0,0l-0.7,0
				c-2.4-0.1-4.8-0.2-6.6-0.4l6.6,0.4c0.3,0,0.5,0,0.7,0c1.6-0.7-3.5-0.9-2.1-1.3c-4.2,0.7-16.5,0.6-16.1-1.2
				c-1,1.6-9.2-0.4-12.6,0.7c1.3,0.2,2.6,0.5,3.8,0.9l-4.5-0.6c0.2-0.1,0.5-0.2,0.8-0.3c-5.4-0.8-11.5-0.1-18.3-0.8
				c2.2,1-5,0.4-8.2,0.5c-0.3,0-0.7,0.1-0.9,0.1c0.2,0,0.6-0.1,0.9-0.1c0.6-0.1,1-0.1,0.8-0.2c-2.1-1-7.7,0.5-11.6-0.2
				c-1.7-0.4,0.4-1-2.4-1.1c0,0.8-10.2,1.3-14.1,0.2c1.8,0.1,1.8-0.3,2.8-0.6c-17.9,0.7-37.2-1.6-55.5-0.7l3.2-1.2
				c-11.6-2-7.4,1.8-16.5,1.3c-24.9-1.5-50.8-4.3-75.1-4.3c-1.8,0.3,1.1,0.5,1.4,1c-2.1-0.2-2.8-1.3-5.6-0.7l0.7,0.7
				c-11.2-2.3-32,0.1-40.3-3.1c-10.6,0.7-18.1-1.4-30.9-0.2c-4.1-0.8,4.7-1-0.8-1.4l-11.9,0.6l0.6-0.1c-11.4,1.6-30.6-3.4-44.9-2.4
				l0.6-0.1c0.3-0.5-2.7-1.1-5-1.1c-0.8,0.3,0.8,0.5,2.2,1c-12.8,0.3-15.7,0.3-25.8,0.1c4.4-0.6-4.1-0.8-4.6-1.8
				c-2.6,0.5,1.6,1.1-4.3,1.4c-8.5-0.2-16.3-1.3-23.4-1.9c-2.8,0.8-6.6,0.4-6.7,1.5c-9.6-0.3-14.9,0-26.7-0.5l-0.3-0.4
				c-3.1,1.2-10.2-1-12.4-0.3c0.3-0.5,1.5-0.6,1.2-1l-5.3,0.2c2.5-0.3,3.9-1.5-0.5-1.8c-4.5,0.8,1.3,0.7-0.9,1.4l-1.4-1.3
				c-3.4,0-4.3,1.4-0.1,1.9c-11.8-0.4-23.4-0.3-33.9-0.8l1.1-0.8c-5.8,0.1-13.6-0.2-17.1-1c-0.1,0.2-1.6,0.6-0.6,0.9
				c-6.3,0.8-1.7-1-6.8-0.6c-0.5,0-1,0.1-1.5,0.2c0.6-0.1,1.1-0.1,1.5-0.2c1.4-0.1,2.8-0.3,3-0.6l-14.1,0.5c-0.2-0.6-8.8-2.3-14.8-2
				c-0.2,0.3,1.5,0.9,3.1,1l1.5-0.1c-0.4,0.1-0.9,0.1-1.5,0.1l-3.8,0.2l-3-1.5l-5.5,1l0,0.3l-1.1-0.1l1.1-0.2l-0.2-1.2
				c-4.1,0.1-5.6,1.6-8.9,1.3c-12.4-1.2-9.9-1.5-18.7-3c-0.9,2.2-14-0.6-16.1,1c-11.8-2.1-28.7-1.7-44.1-2.7l1.2-0.2
				c-6.6-1.3-7.4,1.5-14.5,0.7l1.8-0.3c-9.2-1.5-25.1-1-33.6-0.4c1.7-0.3,0.8-1-2-1.1c-2.3,0.4,2.4,1.7-2.5,1.1
				c1.2-0.2,0.2-0.7-0.9-0.8l-4.7,1c-12.6-1.2-27.4-2.6-40.4-2.4c-2.4-0.5-0.7-0.8-0.1-1.2c-10.3-0.1-20.5,0.4-29.8,0.3l-1-1.3
				c-4.6-0.2-2.7,1.9-8.7,0.5c-1.3-0.2,3.9,0.1,5.5-0.5c-9.2-1.3-5.3,1.1-14.1,0.6l2.2-1.4c-6.8-1.1-7.6,0.5-10,1.3
				c-9.3,1.4-6.8-3.1-19.6-2.2c-2,0.7,0.7,1.1-1.3,1.8c-9-0.7-10.1,0.3-19.1-0.4c-4.9-2.4,4.6,0.2-0.8-2.1l6.9,0.7
				c-6-1.4,5.4-0.1,4.4-1.4C69.7,4.5,63,5.4,57.3,5.6c-0.1-1,6.7,0.1,4-1.3l-2.9,0.3c0.5-0.2,0.7-0.4,1.2-0.5L54.6,4
				c-0.1,0.5,0.2,1.1,1,1.8c-0.1-0.1-0.3-0.2-0.8-0.4c-5.7,1.2-15.6-0.2-20.5,0.7c0.8-0.3,0.1-0.4-0.2-0.6c-3.5-0.2-7.1,1-11.8,1.2
				c-2.6-0.8,1.4-2.1-6.2-2c-1.3,0.8,2.1,2.3-4.2,2.1c0,0,5.5-0.5,2.5-1.2c-6.2,0.4-2-0.3-7.7-1.5C3.6,5.2,0.6,3.6,0,5.4
				c-2.1-1.3-1.5-0.8-5.5-1.9c1.8,1.1-7.3,0.8-7,2c-1.7-1.5,6.5-1.5,1.3-3.1c-3.4,0.8-9.9,0.9-10.4,2.4c-2.6-0.4-3.9-1-7.8-1.3
				c-0.1,0-0.2,0-0.3,0c0.1,0,0.2,0,0.3,0c0.6,0,1.2-0.2,1.5-0.3c-7.3,0.7-18.3-0.7-22.4,1c1.4-2.1-15.7-0.8-10.2-2.7
				c-3.1,0-7.9,0.7-8.9,1.1c0,0.1,0,0.1,0,0.2c-0.4,0-0.3-0.1,0-0.2C-69,1-77,1.9-80.4,0.8c-1.7,0.9-7.2,0.4-10.6,0.8
				c1.5-0.1,2.3-0.4,1.7-0.9c-3.7,0.6-2.8-0.1-6.1-1c-5.1,0.3,1,1.3-2,2c-4.5-0.5-0.7-1.1-1.6-1.8l-5.7,1.3L-84.3,338
				C-82.4,338-77.3,338-74.2,338.1z M1458.2,385.6c-3.5-0.1-1.7,0.2-0.4,0.5l-7.7-0.4C1460.2,386.1,1448.5,384.7,1458.2,385.6z
				 M1426.6,384.1c-0.2,0.1,4,0.5-0.1,0.4C1423.4,384.2,1424,384.2,1426.6,384.1z M1255.2,377.4l-0.4,0.8
				C1255.2,377.7,1252.1,377.4,1255.2,377.4z M1204,374.5l-1.4,0.1l-3.9,0.1L1204,374.5z M1185.3,44.9l-1.4,0.8l-3.1-0.7
				L1185.3,44.9z M915.5,367l-1-1.2C918,365.5,917.7,366.8,915.5,367z M790.2,363.4c-1.4,0.1-4.2-0.4-7-0.5
				C785.3,362.4,788.9,362.8,790.2,363.4z M419.7,351.1l-2.5,0.2l-2.2-0.1L419.7,351.1z M55.6,5.8c0.5,0.3,1,0.7,2,1
				C50.2,6.7,56.3,6.6,55.6,5.8z"/>
			
				<linearGradient id="SVGID_51_" gradientUnits="userSpaceOnUse" x1="197.7283" y1="391.6165" x2="205.729" y2="391.6165" gradientTransform="matrix(0.9956 9.370795e-02 -9.370795e-02 0.9956 23.3886 -63.1957)">
				<stop  offset="0" style="stop-color:#FF4000"/>
				<stop  offset="1" style="stop-color:#FFB22A"/>
			</linearGradient>
			<path fill="url(#SVGID_51_)" d="M191.5,345.6c-2.9-0.1-5.4-0.1-7.3-0.2c-0.2,0-0.5,0.1-0.7,0.1
				C186.8,345.9,189.2,345.8,191.5,345.6z"/>
			
				<linearGradient id="SVGID_52_" gradientUnits="userSpaceOnUse" x1="1321.0376" y1="321.6778" x2="1321.8387" y2="321.6778" gradientTransform="matrix(0.9956 9.370795e-02 -9.370795e-02 0.9956 23.3886 -63.1957)">
				<stop  offset="0" style="stop-color:#FF4000"/>
				<stop  offset="1" style="stop-color:#FFB22A"/>
			</linearGradient>
			<path fill="url(#SVGID_52_)" d="M1308.8,380.9c0.2,0,0.4,0,0.5,0l-0.8-0.1c0.1,0,0.1,0,0.2,0.1
				C1308.7,380.9,1308.7,380.9,1308.8,380.9z"/>
			
				<linearGradient id="SVGID_53_" gradientUnits="userSpaceOnUse" x1="1310.6832" y1="-17.9218" x2="1434.4174" y2="-17.9218" gradientTransform="matrix(0.9956 9.370795e-02 -9.370795e-02 0.9956 23.3886 -63.1957)">
				<stop  offset="0" style="stop-color:#FF4000"/>
				<stop  offset="1" style="stop-color:#FFB22A"/>
			</linearGradient>
			<path fill="url(#SVGID_53_)" d="M1384.7,47.3c-3-0.5-2.5-0.5-0.1-0.8l-54.4-1.7c-0.2,0.1-0.3,0.2-0.5,0.2l4.5,0.2
				c-2.6,0.3-3.4,0.6-3.5,1.4c4.8-0.1,11.3,0.4,12.5-1l-0.2,0.2c6.4,0.7,19.7,1.5,19.3,2c6.8-0.2,15.5,0.9,15.6-0.5
				c-1,0-1.8,0.2-2.4,0.7c0.4-0.5,0.7-1.5,1.8-1.4c0.4,0.3,0.5,0.6,0.5,0.8c4-0.2,10.6,2.2,13.5,0.5c4.9,1.1,0.3,0.4-1.2,1.4
				c4.9,1.1,9.7-1.1,11.4,1c5.6-0.4-1.3-0.5,0.5-1.3c1.3,1.9,10.5,0.7,15.8,1.9c2.3-0.7-2.4-0.6,1.6-1.2c-0.4,0.5,1.8,0.6,2.9,0.7
				l1-1.1l5.5,3.1c7.9-1.1-1.7-2.1,8.9-2.2l-0.6,0.1c2.9,1.3,7.5-0.6,15.2,0.6c-2.6-0.3-1,0.5-1.9,0.8l3-0.2l-0.2-2.6l-68.4-2.2
				C1385,46.7,1388.6,47.2,1384.7,47.3z M1416.5,48.3c-3.5,0-1.7,0.6-0.3,1.1l-7.7-0.6C1418.5,49.3,1406.7,46.7,1416.5,48.3z"/>
			
				<linearGradient id="SVGID_54_" gradientUnits="userSpaceOnUse" x1="1389.833" y1="319.4379" x2="1390.0498" y2="319.4379" gradientTransform="matrix(0.9956 9.370795e-02 -9.370795e-02 0.9956 23.3886 -63.1957)">
				<stop  offset="0" style="stop-color:#FF4000"/>
				<stop  offset="1" style="stop-color:#FFB22A"/>
			</linearGradient>
			<path fill="url(#SVGID_54_)" d="M1377.2,385.1C1377.2,385.1,1377.2,385.1,1377.2,385.1l0.2,0
				C1377.3,385.1,1377.2,385.1,1377.2,385.1z"/>
			
				<linearGradient id="SVGID_55_" gradientUnits="userSpaceOnUse" x1="138.7308" y1="59.1318" x2="141.7662" y2="59.1318" gradientTransform="matrix(0.9956 9.370795e-02 -9.370795e-02 0.9956 23.3886 -63.1957)">
				<stop  offset="0" style="stop-color:#FF4000"/>
				<stop  offset="1" style="stop-color:#FFB22A"/>
			</linearGradient>
			<path fill="url(#SVGID_55_)" d="M159,8.9C159,8.8,159,8.8,159,8.9c-1,0-2.4,0-3,0C156.6,8.8,158,8.8,159,8.9z"/>
			
				<linearGradient id="SVGID_56_" gradientUnits="userSpaceOnUse" x1="1393.3333" y1="318.4543" x2="1407.8013" y2="318.4543" gradientTransform="matrix(0.9956 9.370795e-02 -9.370795e-02 0.9956 23.3886 -63.1957)">
				<stop  offset="0" style="stop-color:#FF4000"/>
				<stop  offset="1" style="stop-color:#FFB22A"/>
			</linearGradient>
			<path fill="url(#SVGID_56_)" d="M1394.9,385c-3.3-0.2-6.1,0.1-9.1,0.2l0.4-0.3c-4.7-0.5-5,0-5.6,0.3l11.1,0.4
				C1392.6,385.3,1396.2,385.6,1394.9,385z"/>
			
				<linearGradient id="SVGID_57_" gradientUnits="userSpaceOnUse" x1="-69.5929" y1="409.5328" x2="-65.5454" y2="409.5328" gradientTransform="matrix(0.9956 9.370795e-02 -9.370795e-02 0.9956 23.3886 -63.1957)">
				<stop  offset="0" style="stop-color:#FF4000"/>
				<stop  offset="1" style="stop-color:#FFB22A"/>
			</linearGradient>
			<path fill="url(#SVGID_57_)" d="M-84.3,338L-84.3,338l0.3,0.1c0,0-0.1,0-0.2,0.1l3.9,0.1C-80.4,338.2-82.6,338.1-84.3,338z"/>
			
				<linearGradient id="SVGID_58_" gradientUnits="userSpaceOnUse" x1="1406.7668" y1="317.8193" x2="1417.3499" y2="317.8193" gradientTransform="matrix(0.9956 9.370795e-02 -9.370795e-02 0.9956 23.3886 -63.1957)">
				<stop  offset="0" style="stop-color:#FF4000"/>
				<stop  offset="1" style="stop-color:#FFB22A"/>
			</linearGradient>
			<path fill="url(#SVGID_58_)" d="M1398.1,385.7c1.9-0.1,4.8,0,6.7-0.1c-3.4-0.6-7-0.1-10.6,0.1l4.6,0.1
				C1398.5,385.7,1398.3,385.7,1398.1,385.7z"/>
			
				<linearGradient id="SVGID_59_" gradientUnits="userSpaceOnUse" x1="1274.9597" y1="-12.2324" x2="1310.6832" y2="-12.2324" gradientTransform="matrix(0.9956 9.370795e-02 -9.370795e-02 0.9956 23.3886 -63.1957)">
				<stop  offset="0" style="stop-color:#FF4000"/>
				<stop  offset="1" style="stop-color:#FFB22A"/>
			</linearGradient>
			<path fill="url(#SVGID_59_)" d="M1329.5,44.7l-35.6-1.1c1.5,0.6,5,1.1,8,1.3c-1.1,0.3-2.8-0.2-3.5-0.1c-0.4,0.6,1.7,0.4,1.7,1.2
				c2.8,0.2,1.1-1,4.6-0.5l-3.2,0.8c1.4,0.3,3.2,0,3.9-0.1c-2.1,0.1-1.8,1.1-1.4,1.6c8.1-0.4,1.5-2.4,1.8-3.3c7.7,1,13.7,0,19.7,0.2
				l-1.1,1c2.9-0.1,4.3-0.2,5.3-0.7l-1.2,0L1329.5,44.7z"/>
			
				<linearGradient id="SVGID_60_" gradientUnits="userSpaceOnUse" x1="1427.6063" y1="316.2461" x2="1443.9636" y2="316.2461" gradientTransform="matrix(0.9956 9.370795e-02 -9.370795e-02 0.9956 23.3886 -63.1957)">
				<stop  offset="0" style="stop-color:#FF4000"/>
				<stop  offset="1" style="stop-color:#FFB22A"/>
			</linearGradient>
			<path fill="url(#SVGID_60_)" d="M1431.4,386.1c-3.9,0.3-7.3,0.2-10.5,0.1c-2.1-0.1-4.1-0.1-6,0.1l13.5,0.4
				C1427.4,386.6,1426.8,386.5,1431.4,386.1z"/>
			
				<linearGradient id="SVGID_61_" gradientUnits="userSpaceOnUse" x1="1379.9009" y1="319.4604" x2="1387.2716" y2="319.4604" gradientTransform="matrix(0.9956 9.370795e-02 -9.370795e-02 0.9956 23.3886 -63.1957)">
				<stop  offset="0" style="stop-color:#FF4000"/>
				<stop  offset="1" style="stop-color:#FFB22A"/>
			</linearGradient>
			<path fill="url(#SVGID_61_)" d="M1374.7,384.3c-2.8-0.1-6,0.1-7.4,0.4c0.2,0,0.4,0.1,0.6,0.1l5.6,0.2
				C1372.2,384.7,1371.9,384.4,1374.7,384.3z"/>
			
				<linearGradient id="SVGID_62_" gradientUnits="userSpaceOnUse" x1="1258.9269" y1="-11.593" x2="1263.4064" y2="-11.593" gradientTransform="matrix(0.9956 9.370795e-02 -9.370795e-02 0.9956 23.3886 -63.1957)">
				<stop  offset="0" style="stop-color:#FF4000"/>
				<stop  offset="1" style="stop-color:#FFB22A"/>
			</linearGradient>
			<path fill="url(#SVGID_62_)" d="M1280.5,43.9c0-0.5,0.9-0.7,1.9-0.7l-4.5-0.1C1278.5,43.4,1278.9,43.9,1280.5,43.9z"/>
			
				<linearGradient id="SVGID_63_" gradientUnits="userSpaceOnUse" x1="1067.2089" y1="8.018269e-02" x2="1070.843" y2="8.018269e-02" gradientTransform="matrix(0.9956 9.370795e-02 -9.370795e-02 0.9956 23.3886 -63.1957)">
				<stop  offset="0" style="stop-color:#FF4000"/>
				<stop  offset="1" style="stop-color:#FFB22A"/>
			</linearGradient>
			<path fill="url(#SVGID_63_)" d="M1085.9,36.9c0.2,0.1,0.5,0.1,0.9,0.2c1.3,0,2.1,0,2.8-0.1L1085.9,36.9z"/>
			
				<linearGradient id="SVGID_64_" gradientUnits="userSpaceOnUse" x1="966.464" y1="6.225" x2="971.7527" y2="6.225" gradientTransform="matrix(0.9956 9.370795e-02 -9.370795e-02 0.9956 23.3886 -63.1957)">
				<stop  offset="0" style="stop-color:#FF4000"/>
				<stop  offset="1" style="stop-color:#FFB22A"/>
			</linearGradient>
			<path fill="url(#SVGID_64_)" d="M985,33.7c1.9,0.3,3.6,0.3,5.3,0.2L985,33.7z"/>
			
				<linearGradient id="SVGID_65_" gradientUnits="userSpaceOnUse" x1="759.7058" y1="19.1629" x2="762.2576" y2="19.1629" gradientTransform="matrix(0.9956 9.370795e-02 -9.370795e-02 0.9956 23.3886 -63.1957)">
				<stop  offset="0" style="stop-color:#FF4000"/>
				<stop  offset="1" style="stop-color:#FFB22A"/>
			</linearGradient>
			<path fill="url(#SVGID_65_)" d="M778,27.1c0.2,0.1,0.4,0.1,0.6,0.2c0.8,0,1.4,0,1.9-0.1L778,27.1z"/>
			
				<linearGradient id="SVGID_66_" gradientUnits="userSpaceOnUse" x1="200.0487" y1="391.1584" x2="203.6943" y2="391.1584" gradientTransform="matrix(0.9956 9.370795e-02 -9.370795e-02 0.9956 23.3886 -63.1957)">
				<stop  offset="0" style="stop-color:#FF4000"/>
				<stop  offset="1" style="stop-color:#FFB22A"/>
			</linearGradient>
			<path fill="url(#SVGID_66_)" d="M186.6,345c-0.4,0-0.6,0.1-0.8,0.2c0.1,0,0.2,0,0.2,0c1.4,0,2.5,0,3.4,0
				C189.3,345.1,188.6,345,186.6,345z"/>
			
				<linearGradient id="SVGID_67_" gradientUnits="userSpaceOnUse" x1="-69.5728" y1="409.6939" x2="-69.4721" y2="409.6939" gradientTransform="matrix(0.9956 9.370795e-02 -9.370795e-02 0.9956 23.3886 -63.1957)">
				<stop  offset="0" style="stop-color:#FF4000"/>
				<stop  offset="1" style="stop-color:#FFB22A"/>
			</linearGradient>
			<path fill="url(#SVGID_67_)" d="M-84.3,338.2L-84.3,338.2c0,0,0.1,0,0.1,0L-84.3,338.2z"/>
		</g>
	</g>
</g>
</svg>
