<?xml version="1.0" encoding="utf-8"?>
<!-- Generator: Adobe Illustrator 19.1.0, SVG Export Plug-In . SVG Version: 6.00 Build 0)  -->
<!DOCTYPE svg PUBLIC "-//W3C//DTD SVG 1.1//EN" "http://www.w3.org/Graphics/SVG/1.1/DTD/svg11.dtd">
<svg version="1.1" xmlns="http://www.w3.org/2000/svg" xmlns:xlink="http://www.w3.org/1999/xlink" x="0px" y="0px"
	 viewBox="0 0 1280 356.4" enable-background="new 0 0 1280 356.4" xml:space="preserve">
<g id="town" display="none">
	<polygon display="inline" points="1151.6,154.5 1104,181.4 1072,181.4 1072,198.4 1095,198.4 1088.6,254.4 1060.1,257.4 
		1059,225.4 1076.6,224.4 1051,192.4 932.6,200.4 908.6,221.4 923.6,230.2 914.6,298.5 640,232.5 445.1,258 445,249.4 460,249.4 
		460,237 311.6,182.7 176.6,237.1 163.2,139.7 124.2,192.4 41.6,9 0.4,55.6 0,356.4 1280,356.4 1280,70.4 1264.1,75 	"/>
</g>
<g id="Layer_2">
	<path d="M1254,288.4l-95-13.6l-139,9.6l-48-9.6l-41,30.4l-187-55.9l-30,17l-13-12.3l-57-9.7l-25,9.7l-16-9.7l-47,34
		c-126.7-20.5-245.8-23.8-296.3-24.3l-101-76l-5.1,14.2l0,0.4l-26.5-50.3l-2.9,49.9L21.5,0L0,46.9v309.5h162h15h193h25.6H600h222.3
		H1280v-86L1254,288.4z"/>
	<path d="M264.1,262.2c0,0,10.5-10.5-8.1-18.8C256,243.4,267,254.9,264.1,262.2z"/>
	<path d="M271.5,262.2c0,0,8-17.5-10.5-25.8C261,236.4,273.2,255.2,271.5,262.2z"/>
	<path d="M358.5,267.2c0,0,8-17.5-10.5-25.8C348,241.4,360.2,260.2,358.5,267.2z"/>
	<path d="M362.7,268.2c0,0-7.7-15.9,4.4-31.8C367.1,236.4,361,261.2,362.7,268.2z"/>
	<path d="M365.7,275.2c0,0-7.7-15.9,4.4-31.8C370.1,243.4,364,268.2,365.7,275.2z"/>
	<path d="M535.7,291.2c0,0-4.2-15.9,4.4-31.8C540.1,259.4,534,284.2,535.7,291.2z"/>
	<path d="M531.4,290.3c0,0-6.9-15-1.1-32.1C530.4,258.2,528.5,283.6,531.4,290.3z"/>
	<path d="M513.5,261.4c0,0,14.9,6.5,14.9,28.4C528.4,289.8,519,266.1,513.5,261.4z"/>
	<path d="M296,243.4c0,0,3.4,21,10.3,21.8C306.3,265.2,294.7,263.3,296,243.4z"/>
	<path d="M298.5,239.5c0,0,3.4,21,10.3,21.8C308.8,261.3,297.1,259.4,298.5,239.5z"/>
</g>
</svg>
