<?xml version="1.0" encoding="utf-8"?>
<!-- Generator: Adobe Illustrator 19.1.0, SVG Export Plug-In . SVG Version: 6.00 Build 0)  -->
<!DOCTYPE svg PUBLIC "-//W3C//DTD SVG 1.1//EN" "http://www.w3.org/Graphics/SVG/1.1/DTD/svg11.dtd">
<svg version="1.1" id="Layer_1" xmlns="http://www.w3.org/2000/svg" xmlns:xlink="http://www.w3.org/1999/xlink" x="0px" y="0px"
	 viewBox="0 0 554.9 256" enable-background="new 0 0 554.9 256" xml:space="preserve">
<g>
	<path fill="#FFFFFF" d="M154.2,121.2c-2.4-2.5-2.8-4.3-1.7-7.5c7.9-22.5,16.6-44.9,26.2-67.2c1-2.2,1.4-4.6,2.3-7.2
		c-2.6-0.6-4.6-1.4-6.7-1.5c-14.2-1.1-28.5-1.3-42.8-2.2c-7.2-0.4-10.1,2.5-12.4,8c-9.8,24.1-18.8,48.3-26.5,72.6
		c-0.5,1.5-1,2.9-1.8,5.2c-7.4-23-14.6-45-22.5-68.5C59,56.3,51,59.1,43.2,62.2c-10.8,4.4-21.4,9.2-32,14c-4.3,2-4.4,4.7-3,8.1
		c2.2,5.2,4,10.6,6.5,15.7c21,44.2,41.2,88.7,60.7,133.5c2.5,5.8,5.5,11.5,8.2,17.2c15.3-6.7,30.4-12.6,46-18
		c-0.8-2.5-1.3-4.1-1.8-5.7c-3.7-11-7.4-22-11.2-33c-0.4-1.3-1.2-2.8-0.8-3.9c2-6.9,4.3-13.8,6.8-21.2c1.7,1.7,2.9,2.8,4,4
		c13.9,14.5,27,29.4,39.6,44.6c5.4,6.6,6.1,7,12.6,2.9c10.4-6.5,20.7-13.5,31.4-20c1.8-1.1,3.3-2.8,5-4.3c-1-1.8-1.7-3.1-2.6-4.3
		C194.9,167.4,175.5,143.8,154.2,121.2z"/>
	<path fill="#FFFFFF" d="M386.8,130.4c10.4-9.1,21.3-17.9,32.3-26.7c4.4-3.5,4.5-4.6,0.3-8.2c-9-7.7-18.6-14.9-28.2-22.2
		c-3.5-2.7-6.4-2.8-9.9,0.1c-14.5,11.9-28.6,24-42,36.5c-1.1,1-2.2,2.1-3.8,3.6c2-36.3,3.9-71.7,5.9-108.3
		c-16.7-0.5-32.2-0.7-47.7-0.1c-12.1,0.5-12.6,1.3-12.4,12.3c0,0.9,0,1.8,0.1,2.7c3.5,55.4,6.4,110.8,8.9,166.2
		c0.4,7.7,1.2,15.4,1.9,23.7c14.5-0.5,28.4-0.5,41.9-0.1c0.5-13,1.4-26.1,1.3-39.2c-0.1-6.6,3.3-9.3,7.8-12.5
		c1.2,2.4,2.4,4.4,3.3,6.6c6.7,15.8,12.9,31.7,18.3,47.9c1.6,4.8,4.2,6.2,8,5.2c9.8-2.5,19.8-5,29.8-7.4c3.2-0.8,6.2-2.3,10.1-3.7
		c-8.7-25-18.5-49.2-29.7-73.4C384.2,132.4,385.6,131.5,386.8,130.4z"/>
	<path fill="#FFFFFF" d="M502.3,105.5c-39.9-13.5-78.8,8.4-86.7,45.5c-8.8,40.9,9.8,75.4,42.7,86.6c31.7,10.7,67.8-5.6,83.3-39.9
		C558.7,159.7,543.3,119.4,502.3,105.5z M497.5,179.7c-5.3,13.6-14.9,18.4-27.1,13.8c-9-3.4-13.3-14.8-9.6-26.5
		c4.3-13.5,14.2-18.9,26.7-14.3C498.6,156.9,502.3,167.3,497.5,179.7z"/>
	<path fill="#FFFFFF" d="M224.8,83.8c-9.3,0.4-9.6,0.7-9.1,8.7c2,34.5,4.3,68.9,6.8,103.3c0.1,2.1,0.5,4.1,0.9,6.7
		c13.1-0.6,25.8-0.9,38.5-0.7c3.4,0.1,4.6-1.1,4.6-4.6c0.8-35,2.1-70,3.8-105.1c0.1-2.5,0.1-5,0.2-8.9
		C254.7,83,239.8,83.1,224.8,83.8z"/>
	<path fill="#FFFFFF" d="M240.1,8C220.4,8.5,211.3,18,212,36.3c0.3,8.3,3.2,14.9,8.2,19.3c-0.2,4.5,0.1,14.4,6.5,13.6
		c4.7-0.5,6.7-4,7.6-6.9c0,4.1,1,8.8,5.6,8.2c0,0,4.7,1.9,7.6-7.6c0,4,1.1,8.6,6.2,7.9c0,0,6,0.4,6.2-13.5
		c7-4.3,11.4-11.1,11.7-19.3C272.1,19.7,260,7.7,240.1,8z M229.9,50.9c-3.1,1.2-6.7-0.4-8.1-3.6c-1.4-3.2-0.1-6.8,3.1-8
		c3.1-1.2,6.8,0.4,8.2,3.6C234.4,46.1,233,49.7,229.9,50.9z M257.9,49.7c-2.1,2.8-6,3.7-8.8,1.9c-2.7-1.8-3.3-5.5-1.1-8.4
		c2.1-2.9,6.1-3.7,8.9-1.9C259.6,43.1,260,46.9,257.9,49.7z"/>
</g>
</svg>
