<?xml version="1.0" encoding="utf-8"?>
<!-- Generator: Adobe Illustrator 19.1.0, SVG Export Plug-In . SVG Version: 6.00 Build 0)  -->
<!DOCTYPE svg PUBLIC "-//W3C//DTD SVG 1.1//EN" "http://www.w3.org/Graphics/SVG/1.1/DTD/svg11.dtd">
<svg version="1.1" id="Layer_1" xmlns="http://www.w3.org/2000/svg" xmlns:xlink="http://www.w3.org/1999/xlink" x="0px" y="0px"
	 viewBox="0 0 1280 356.4" enable-background="new 0 0 1280 356.4" xml:space="preserve">
<polygon points="1151.6,154.5 1104,181.4 1072,181.4 1072,198.4 1095,198.4 1088.6,254.4 1060.1,257.4 1059,225.4 1076.6,224.4 
	1051,192.4 932.6,200.4 908.6,221.4 923.6,230.2 914.6,298.5 640,232.5 445.1,258 445,249.4 460,249.4 460,237 311.6,182.7 
	176.6,237.1 163.2,139.7 124.2,192.4 41.6,9 0.4,55.6 0,356.4 1280,356.4 1280,70.4 1264.1,75 "/>
</svg>
